<?xml version="1.0" encoding="UTF-8" standalone="no"?>
<svg
   width="173.93866"
   height="126.82163"
   viewBox="0 0 173.93866 126.82163"
   version="1.1"
   id="svg1968"
   sodipodi:docname="4.svg"
   inkscape:version="1.1 (c68e22c387, 2021-05-23)"
   xmlns:inkscape="http://www.inkscape.org/namespaces/inkscape"
   xmlns:sodipodi="http://sodipodi.sourceforge.net/DTD/sodipodi-0.dtd"
   xmlns:xlink="http://www.w3.org/1999/xlink"
   xmlns="http://www.w3.org/2000/svg"
   xmlns:svg="http://www.w3.org/2000/svg">
  <sodipodi:namedview
     id="namedview1970"
     pagecolor="#ffffff"
     bordercolor="#666666"
     borderopacity="1.0"
     inkscape:pageshadow="2"
     inkscape:pageopacity="0.0"
     inkscape:pagecheckerboard="0"
     showgrid="false"
     inkscape:zoom="4.02954"
     inkscape:cx="85.741797"
     inkscape:cy="62.414072"
     inkscape:window-width="1920"
     inkscape:window-height="1017"
     inkscape:window-x="-8"
     inkscape:window-y="-8"
     inkscape:window-maximized="1"
     inkscape:current-layer="svg1968" />
  <defs
     id="defs1951">
    <rect
       width="190"
       height="146"
       id="artboard_1"
       x="0"
       y="0" />
    <clipPath
       id="clip_1">
      <use
         xlink:href="#artboard_1"
         clip-rule="evenodd"
         id="use1948"
         x="0"
         y="0"
         width="100%"
         height="100%" />
    </clipPath>
  </defs>
  <use
     xlink:href="#artboard_1"
     stroke="none"
     fill="#ffffff"
     fill-opacity="0"
     id="use1953"
     x="0"
     y="0"
     width="100%"
     height="100%"
     transform="translate(-9.1522139,-10.931331)" />
  <g
     id="Group-3"
     transform="translate(-21.037743,-27.403667)">
    <path
       d="M 0.0237923,51.2426 C -1.05105,22.068 34.4355,-1.43907 76.8385,0.0687027 119.242,1.57677 154.487,26.4498 155.561,55.6248 c 0.384,10.4242 0.355,22.4351 -6.918,30.3528 -13.084,14.2414 -40.66,20.7114 -67.9127,19.7424 -42.403,-1.507 -55.1256,-10.3346 -55.1256,-10.3346 0,0 -24.50627,-14.9679 -25.5809077,-44.1428 z"
       transform="rotate(-32,143.86,41.251188)"
       id="Ellipse-6"
       fill="#f1bd68"
       fill-rule="evenodd"
       stroke="none" />
    <path
       d="M -1.62485e-7,105.808 C 15.9464,118.933 35.1264,118.737 35.1264,118.737 c 0,0 15.467,0.744 52.2256,-20.4474 23.625,-13.6195 43.583,-33.7205 47.131,-52.731 1.972,-10.5686 -4.368,-20.77 -10.218,-29.407 C 119.191,8.65914 111.551,3.25688 102.33,-9.62519e-6 104.734,2.1305 106.858,4.52688 108.66,7.18668 114.51,15.8231 120.849,26.0249 118.877,36.5938 115.329,55.6044 95.3712,75.7048 71.7462,89.3245 34.9878,110.516 19.5207,109.772 19.5207,109.772 c 0,0 -8.8477,0.09 -19.520700162485,-3.964 z"
       transform="translate(45.311264,33.466568)"
       id="Ellipse-3-Difference"
       fill="#d6a151"
       fill-rule="evenodd"
       stroke="none" />
    <g
       id="Group-2"
       transform="translate(39.190598,28.2191)">
      <path
         d="m 13.4025,45.837 c 0,-1.5584 -2.7024,-0.588 -3.3397,0 -2.23048,2.0578 -4.32802,3.891 -5.42698,6.9326 -0.57711,1.5973 -2.92224,5.3767 -2.92224,6.9327 0,0.9393 0.22393,3.2597 -0.41746,3.8514 -0.26713,0.2465 -0.834926,0.7105 -0.834926,1.1555 0,0.1284 0,0.2567 0,0.3851 0,0.1284 0.098397,0.2944 0,0.3852 -0.098397,0.0908 -0.319066,-0.0908 -0.4174626,0 -0.0983969,0.0908 0,0.2567 0,0.3851 0,0.1284 -0.0622314,0.5 0,0.3852 C 1.25825,64.0088 3.05565,62.618 4.21836,60.4726 c 0.7704,-1.4216 2.58809,-1.9514 3.75716,-2.3109 0.35577,-0.1094 2.32688,-0.6062 2.50478,-0.7703 0.2915,-0.269 0.462,-0.7703 1.2524,-0.7703 0.1479,0 1.8282,0.1461 1.2524,-0.3852 -1.1994,-1.1064 -0.835,7.9767 -0.835,8.4733 0,1.2817 0.5125,5.8648 1.2524,6.5475 0.8804,0.8122 7.0969,11.1692 7.0969,11.1692 0,0 -2.0873,-9.4794 -2.0873,-11.1692 0,-4.1263 0.0169,-8.1661 0.8349,-11.9396 0.9221,-4.2534 0.7258,-5.2913 2.9222,-7.3178 1.5999,-1.476 5.0955,-0.4644 6.6794,-1.9257 1.6787,-1.5488 6.2316,-1.1274 7.9318,-2.696 0.9523,-0.8786 3.1171,-0.4751 4.5921,-1.1555 0.6928,-0.3196 1.6326,-0.7703 2.5048,-0.7703 0.258,0 2.6204,0.1067 2.0873,-0.3851 -0.3497,-0.3226 -0.4175,3.3235 -0.4175,3.8515 0,1.3482 -0.192,2.7268 0.4175,3.8514 1.2535,2.3129 0.5727,5.5353 2.5048,7.3178 0.919,0.8479 8.7487,12.3413 11.2714,10.0138 0.0157,-0.0144 -1.4529,-5.5771 -1.6698,-5.7772 -1.9718,-1.8191 -3.7851,-18.4612 -0.8349,-21.183 0.8134,-0.7505 7.0989,9e-4 7.9318,0.3851 4.4495,2.0526 12.2306,-0.9056 16.6984,1.1554 0.7659,0.3533 2.8241,0.6798 3.3398,1.1555 0.2837,0.2618 2.102,2.2972 2.5047,1.9257 0.4277,-0.3945 -1.8144,-3.3479 -2.0873,-3.8515 C 83.8928,40.7177 83.082,38.4493 78.5267,37.7489 76.013,37.3624 72.7649,36.439 70.5949,35.438 69.3026,34.8419 67.46,34.9875 66.4202,34.6677 c -0.9047,-0.2782 -1.6845,-0.3986 -2.0873,-0.7703 -0.1685,-0.1554 -2.9222,0.1169 -2.9222,0 0,-7.9166 9.7816,-14.6356 16.6985,-14.6356 6.5141,0 9.719,2.3651 14.6112,4.6218 0.8272,0.3816 9.0146,6.3185 9.6016,5.7772 1.342,-1.2378 -1.234,-4.9722 -1.67,-5.7772 C 97.705,18.4456 93.2117,16.634 88.9632,12.7144 85.8168,9.81149 74.308,15.0659 81.4489,8.47774 82.022,7.94901 82.6112,7.79059 83.1187,7.3223 84.6676,5.89329 87.4936,5.597 88.9632,4.24112 89.659,3.59921 90.7722,3.34245 91.468,2.70053 91.6416,2.54033 95.087,2.18796 94.8077,1.93024 87.7648,-4.56743 70.4328,7.08668 66.0028,11.1738 c -2.4463,2.2568 -12.421,-0.8178 -15.8636,0.7703 -0.2217,0.1022 -3.3397,0 -3.3397,0 0,0 3.0684,-2.57093 3.3397,-2.69607 0.7975,-0.36786 0.9891,-1.20284 2.0873,-1.54059 0.3108,-0.09558 2.4203,-0.84821 2.0873,-1.15544 -3.9489,-3.64327 -18.8113,8.485 -21.2905,9.6287 -2.4751,1.1417 -8.5436,5.5713 -10.8541,7.7029 -2.0846,1.9232 -4.3689,5.4817 -6.6794,6.5475 -1.2915,0.5958 -5.2533,7.5428 -1.2523,3.8515 0.3979,-0.3671 2.1993,-0.548 2.9222,-0.7703 0.2952,-0.0908 0.5397,-0.2944 0.8349,-0.3852 0.132,-0.0406 0.3191,0.0908 0.4175,0 0.0984,-0.0907 -0.0984,-0.2943 0,-0.3851 0.0984,-0.0908 0.2783,0 0.4174,0 0.1392,0 0.3191,0.0908 0.4175,0 0.0984,-0.0908 -0.0984,-0.2944 0,-0.3852 0.0984,-0.0907 0.4175,-0.1283 0.4175,0 0,0.6391 -3.1564,5.0538 -3.7572,6.1624 -0.5876,1.0842 -0.8255,2.6829 -1.6698,3.8515 -0.6614,0.9151 -2.0874,3.837 -2.0874,3.4663"
         id="Vector"
         fill="#8a5c31"
         fill-rule="evenodd"
         stroke="none" />
      <path
         d="m 12.214,3.70656 c -2.79694,0 -8.66487,12.13674 -10.0191,14.63554 -0.19007,0.3508 -2.743684,3.6311 -2.087311,4.2367 0.40549,0.3741 9.561181,-2.9404 11.271511,-3.4664 2.4559,-0.7552 11.6916,-1.9282 13.3588,-3.4663 3.706,-3.4191 2.9224,-11.1694 7.5143,-15.405867 0.435,-0.40131 -1.8404,-0.2277619 -2.0873,0 -0.5326,0.491321 -1.4097,0.385147 -2.5048,0.385147 -6.5698,0 -10.9906,3.08118 -16.281,3.08118"
         transform="translate(25.40136,18.63646)"
         id="Vector-2"
         fill="#f1bd68"
         fill-rule="evenodd"
         stroke="none" />
    </g>
    <path
       d="m 4.25581,29.2759 c 1.41509,0 3.14065,4.8233 4.17463,5.7772 2.56556,2.367 13.12036,12.9298 19.62076,6.9326 0.7716,-0.7118 -3.0751,-5.1135 -3.7572,-6.1623 -2.2807,-3.507 -3.9793,-8.293 -6.2619,-10.399 C 14.4959,22.162 13.3105,16.0614 9.68283,12.7146 8.09305,11.2479 7.49272,8.57861 6.76059,6.55223 6.43417,5.64879 4.04886,-0.189479 3.83835,0.00473676 0.248214,3.31696 -1.81145,20.5971 2.1685,24.269 c 1.41094,1.3017 1.50681,7.3178 3.75716,7.3178"
       transform="translate(36.96189,93.54979)"
       id="path1960"
       fill="#f7da82"
       fill-rule="evenodd"
       stroke="none" />
    <path
       d="M -1.3629e-4,109.286 C 1.46432,109.381 2.2963,109.373 2.2963,109.373 c 0,0 15.9312,0.706 53.7882,-19.2826 C 80.4153,77.2442 100.968,58.2818 104.618,40.3437 106.648,30.371 100.116,20.7428 94.0887,12.5922 90.1541,7.27059 84.7232,3.06578 78.2278,1.77754e-5 80.1552,1.43489 81.9338,3.02353 83.5448,4.76665 90.5449,12.3408 98.2294,21.3396 97.4429,31.4383 96.0285,49.6041 77.9333,70.285 55.3259,85.2158 20.1498,108.448 4.22063,109.156 4.22063,109.156 c 0,0 -1.56788,0.154 -4.22076629,0.13 z"
       transform="translate(80.58296,38.08905)"
       id="Ellipse-6-Difference"
       fill="#855a32"
       fill-rule="evenodd"
       stroke="none" />
    <path
       d="M -1.3629e-4,109.286 C 1.46432,109.381 2.2963,109.373 2.2963,109.373 c 0,0 15.9312,0.706 53.7882,-19.2826 C 80.4153,77.2442 100.968,58.2818 104.618,40.3437 106.648,30.371 100.116,20.7428 94.0887,12.5922 90.1541,7.27059 84.7232,3.06578 78.2278,1.77754e-5 80.1552,1.43489 81.9338,3.02353 83.5448,4.76665 90.5449,12.3408 98.2294,21.3396 97.4429,31.4383 96.0285,49.6041 77.9333,70.285 55.3259,85.2158 20.1498,108.448 4.22063,109.156 4.22063,109.156 c 0,0 -1.56788,0.154 -4.22076629,0.13 z"
       transform="translate(80.58296,38.08905)"
       id="Ellipse-6-Difference-2"
       fill="#855a32"
       fill-rule="evenodd"
       stroke="none" />
    <path
       d="M -5.10936e-5,107.74 C 8.41997,105.392 21.7716,100.303 40.8719,89.2912 64.4974,75.6717 84.4551,55.5712 88.0032,36.56 89.9754,25.9915 83.6359,15.79 77.7855,7.15361 75.9934,4.50744 73.8813,2.12198 71.4926,-3.28227e-4 77.8438,7.87343 84.3706,17.099 83.4512,27.2597 82.3561,39.3611 74.8303,52.4158 63.858,64.2878 55.0911,75.2604 42.4473,85.5317 28.531,93.5544 16.9776,100.215 7.52754,104.709 -5.10936e-5,107.74 Z"
       transform="rotate(3.0000003,-836.22094,2093.1077)"
       id="Ellipse-6-Difference-3-Difference"
       fill="#664627"
       fill-rule="evenodd"
       stroke="none" />
    <path
       d="M -1.06135e-5,121.988 C 3.42554,122.443 5.55203,122.422 5.55203,122.422 c 0,0 15.46687,0.744 52.22517,-20.448 C 81.4024,88.3546 101.36,68.254 104.908,49.2434 106.88,38.6748 100.541,28.4732 94.6905,19.8363 85.0339,5.57811 66.0877,-1.11063 44.627,0.150171 61.8588,1.20782 76.5501,7.84519 84.6714,19.8362 90.5216,28.4727 96.8612,38.6744 94.8884,49.2431 91.3404,68.2538 71.383,88.3544 47.758,101.974 22.1934,116.712 6.92717,120.84 -1.06135e-5,121.988 Z"
       transform="translate(76.72838,27.403687)"
       id="Ellipse-5-Difference"
       fill="#8a5c31"
       fill-rule="evenodd"
       stroke="none" />
  </g>
</svg>
