
<svg width="41.856358mm"
   height="28.1373mm"
   viewBox="0 0 41.856358 28.1373" xmlns:svg="http://www.w3.org/2000/svg">


  <g transform="translate(-71.041233,-165.95262)">
    <path d="m 75.720534,165.95262 c -2.592308,0 -4.679301,2.29891 -4.679301,5.15472 v 17.82786 c 0,2.85581 2.086993,5.15472 4.679301,5.15472 h 32.497756 c 2.59231,0 4.6793,-2.29891 4.6793,-5.15472 v -17.82786 c 0,-2.85581 -2.08699,-5.15472 -4.6793,-5.15472 z m 1.980759,2.95641 h 28.535727 c 1.96175,0 3.54138,1.57031 3.54138,3.52123 v 15.18202 c 0,1.95092 -1.57963,3.52123 -3.54138,3.52123 H 77.701293 c -1.961759,0 -3.540872,-1.57031 -3.540872,-3.52123 v -15.18202 c 0,-1.95092 1.579113,-3.52123 3.540872,-3.52123 z"
       style="fill:#431f11;fill-opacity:1;stroke:none;stroke-width:0.3;stroke-linecap:square;stroke-linejoin:miter;stroke-miterlimit:0;stroke-dasharray:none;stroke-opacity:1;paint-order:stroke fill markers" />
    <path d="m 91.418024,174.63805 a 11.490833,12.666907 0 0 0 -1.143082,0.124 11.490833,12.666907 0 0 0 -9.669177,10.65698 h 22.727295 a 11.490833,12.666907 0 0 0 0,-5.9e-4 11.490833,12.666907 0 0 0 -11.915036,-10.78039 z"
       style="fill:#eb712e;fill-opacity:1;stroke:none;stroke-width:3.37225;stroke-linejoin:miter;stroke-miterlimit:4;stroke-dasharray:none;stroke-opacity:1;paint-order:stroke markers fill" />
  </g>
</svg>
