<?xml version="1.0" encoding="UTF-8" standalone="no"?>
<!-- Created with Inkscape (http://www.inkscape.org/) -->

<svg
   width="64.9608mm"
   height="54.76878mm"
   viewBox="0 0 64.9608 54.76878"
   version="1.1"
   id="svg971"
   inkscape:version="1.1 (c68e22c387, 2021-05-23)"
   sodipodi:docname="logo.svg"
   xmlns:inkscape="http://www.inkscape.org/namespaces/inkscape"
   xmlns:sodipodi="http://sodipodi.sourceforge.net/DTD/sodipodi-0.dtd"
   xmlns="http://www.w3.org/2000/svg"
   xmlns:svg="http://www.w3.org/2000/svg">
  <sodipodi:namedview
     id="namedview973"
     pagecolor="#ffffff"
     bordercolor="#666666"
     borderopacity="1.0"
     inkscape:pageshadow="2"
     inkscape:pageopacity="0.0"
     inkscape:pagecheckerboard="0"
     inkscape:document-units="mm"
     showgrid="false"
     inkscape:zoom="1.0482005"
     inkscape:cx="3.3390558"
     inkscape:cy="92.06254"
     inkscape:window-width="1920"
     inkscape:window-height="1017"
     inkscape:window-x="-8"
     inkscape:window-y="-8"
     inkscape:window-maximized="1"
     inkscape:current-layer="layer1" />
  <defs
     id="defs968" />
  <g
     inkscape:label="Слой 1"
     inkscape:groupmode="layer"
     id="layer1"
     transform="translate(-55.334503,-51.149271)">
    <path
       inkscape:connector-curvature="0"
       id="path2232"
       d="m 96.12916,51.15661 a 12.175775,12.320452 0 0 0 -0.160714,0.006 v 10e-4 a 12.175775,12.320452 0 0 0 -1.211297,0.12041 12.175775,12.320452 0 0 0 -7.338052,4.0566 13.386156,13.269304 0 0 0 -11.710913,-4.04368 13.386156,13.269304 0 0 0 -10.795722,9.17308 h 3.060277 a 10.627743,10.318797 0 0 1 8.359179,-6.5319 10.627743,10.318797 0 0 1 1.057302,-0.10077 v -5.1e-4 a 10.627743,10.318797 0 0 1 0.786513,-0.007 v -5.1e-4 a 10.627743,10.318797 0 0 1 9.310026,5.88594 9.6391171,9.39196 0 0 1 7.405233,-5.54075 9.6391171,9.39196 0 0 1 10.953338,7.90133 9.6391171,9.39196 0 0 1 0.0424,0.416 6.7968134,6.9203916 0 0 1 3.6344,-1.79473 6.7968134,6.9203916 0 0 1 7.72408,5.82239 6.7968134,6.9203916 0 0 1 -5.55935,7.83725 8.8358574,6.8586024 0 0 1 4.42453,4.96197 8.8358574,6.8586024 0 0 1 -7.429,7.79642 l -0.016,0.002 a 8.8358574,6.8586024 0 0 1 -4.81986,-0.50488 6.6732348,6.4260777 0 0 1 1.04283,2.59519 6.6732348,6.4260777 0 0 1 -5.61051,7.30446 l -0.01188,0.002 A 6.6732348,6.4260777 0 0 1 96.753939,96.4054 v 2.74712 a 9.5155392,9.0212248 0 0 0 2.794146,0.009 l 0.01654,-0.002 a 9.5155392,9.0212248 0 0 0 8.050675,-9.77356 12.048896,9.3973308 0 0 0 1.58439,-0.0899 l 0.0217,-0.003 a 12.048896,9.3973308 0 0 0 10.13014,-10.68204 12.048896,9.3973308 0 0 0 -2.54197,-4.49636 9.4537095,9.0212248 0 0 0 3.38378,-8.31784 9.4537095,9.0212248 0 0 0 -10.74302,-7.58972 9.4537095,9.0212248 0 0 0 -1.71566,0.41031 12.175775,12.320452 0 0 0 -11.604974,-7.46104 z"
       style="fill:#431f11;fill-opacity:1;stroke:none;stroke-width:0.3;stroke-linecap:square;stroke-linejoin:miter;stroke-miterlimit:0;stroke-dasharray:none;stroke-opacity:1;paint-order:stroke fill markers" />
    <path
       inkscape:connector-curvature="0"
       id="rect2360"
       d="m 60.013804,77.78075 c -2.592308,0 -4.679301,2.29891 -4.679301,5.15472 v 17.82786 c 0,2.85581 2.086993,5.15472 4.679301,5.15472 h 32.497757 c 2.592309,0 4.679302,-2.29891 4.679302,-5.15472 V 82.93547 c 0,-2.85581 -2.086993,-5.15472 -4.679302,-5.15472 z m 1.980759,2.95641 h 28.535724 c 1.961756,0 3.541385,1.57031 3.541385,3.52123 v 15.18202 c 0,1.95092 -1.579629,3.52123 -3.541385,3.52123 H 61.994563 c -1.961759,0 -3.540872,-1.57031 -3.540872,-3.52123 V 84.25839 c 0,-1.95092 1.579113,-3.52123 3.540872,-3.52123 z"
       style="fill:#431f11;fill-opacity:1;stroke:none;stroke-width:0.3;stroke-linecap:square;stroke-linejoin:miter;stroke-miterlimit:0;stroke-dasharray:none;stroke-opacity:1;paint-order:stroke fill markers" />
    <path
       inkscape:transform-center-y="6.6411147"
       inkscape:transform-center-x="-0.087383143"
       inkscape:export-filename="E:\open\OpenServer\domains\ZaBatonom\images\logo.png"
       inkscape:export-ydpi="96"
       inkscape:export-xdpi="96"
       inkscape:connector-curvature="0"
       id="path8182"
       d="m 75.711294,86.46618 a 11.490833,12.666907 0 0 0 -1.143082,0.124 11.490833,12.666907 0 0 0 -9.669177,10.65698 H 87.62633 a 11.490833,12.666907 0 0 0 0,-5.9e-4 11.490833,12.666907 0 0 0 -11.915036,-10.78039 z"
       style="fill:#eb712e;fill-opacity:1;stroke:none;stroke-width:3.37225;stroke-linejoin:miter;stroke-miterlimit:4;stroke-dasharray:none;stroke-opacity:1;paint-order:stroke markers fill" />
    <path
       inkscape:connector-curvature="0"
       id="rect2366"
       d="M 58.24492,65.299473 V 78.52864 h 15.875 V 65.299473 h -2.963643 v 11.90625 h -9.947714 v -11.90625 z"
       style="fill:#431f11;fill-opacity:1;stroke:none;stroke-width:0.3;stroke-linecap:square;stroke-linejoin:miter;stroke-miterlimit:0;stroke-dasharray:none;stroke-opacity:1;paint-order:stroke fill markers" />
    <path
       inkscape:connector-curvature="0"
       id="rect2383"
       d="m 59.303253,58.985647 c -2.198687,0 -3.96875,1.635784 -3.96875,3.667993 v 0.300757 c 0,2.032209 1.770063,3.667993 3.96875,3.667993 h 13.758333 c 2.198688,0 3.96875,-1.635784 3.96875,-3.667993 V 62.65364 c 0,-2.032209 -1.770062,-3.667993 -3.96875,-3.667993 z m 1.5875,2.495455 h 10.583333 c 1.465792,0 2.645834,0.590023 2.645834,1.322917 0,0.732893 -1.180042,1.322916 -2.645834,1.322916 H 60.890753 c -1.465791,0 -2.645833,-0.590023 -2.645833,-1.322916 0,-0.732894 1.180042,-1.322917 2.645833,-1.322917 z"
       style="fill:#431f11;fill-opacity:1;stroke:none;stroke-width:0.3;stroke-linecap:square;stroke-linejoin:miter;stroke-miterlimit:0;stroke-dasharray:none;stroke-opacity:1;paint-order:stroke fill markers" />
    <text
       xml:space="preserve"
       style="font-style:normal;font-weight:normal;font-size:9.96102px;line-height:1.25;font-family:sans-serif;fill:#431f11;fill-opacity:1;stroke:none;stroke-width:0.39886"
       x="90.629364"
       y="61.6931"
       id="text17873"
       transform="scale(0.82812094,1.2075531)"><tspan
         sodipodi:role="line"
         id="tspan17871"
         style="font-style:normal;font-variant:normal;font-weight:normal;font-stretch:normal;font-size:9.96102px;font-family:'Ink Free';-inkscape-font-specification:'Ink Free';stroke-width:0.39886;fill:#431f11;fill-opacity:1"
         x="90.629364"
         y="61.6931">zBatonom</tspan></text>
  </g>
</svg>
