<?xml version="1.0" encoding="utf-8"?><svg viewBox="0 0 512 512" xmlns="http://www.w3.org/2000/svg" xmlns:xlink="http://www.w3.org/1999/xlink"><style>:root>svg{display:none}:root>svg:target{display:block}</style><svg viewBox="0 0 47.5 48.19" id="account" xmlns="http://www.w3.org/2000/svg"><path d="M23.75 0A24 24 0 000 24.1a24 24 0 0023.75 24.09A24 24 0 0047.5 24.1 24 24 0 0023.75 0zm0 44.36A20.13 20.13 0 013.8 24.1a20.13 20.13 0 0120-20.27 20.13 20.13 0 0120 20.27 20.13 20.13 0 01-20.05 20.26z"/><path d="M25.23 28.63a9.16 9.16 0 10-3.27 0c-3.51.5-7 2.77-11.27 6.76A2.38 2.38 0 0012 39.43a95.58 95.58 0 0023.48 0 2.3 2.3 0 002-2.31 2.33 2.33 0 00-.77-1.74c-4.39-3.96-8.02-6.18-11.48-6.75z"/></svg><svg viewBox="0 0 23.5 23.5" id="admin" xmlns="http://www.w3.org/2000/svg"><path class="bcls-1" d="M0 0v23.5h23.5V0zm21.33 21.33H2.17V2.17h19.16z"/></svg><svg viewBox="0 0 23.6 23.6" id="admin-face" xmlns="http://www.w3.org/2000/svg"><path d="M7.05 9.9A1.9 1.9 0 109 11.8a1.9 1.9 0 00-1.95-1.9zm9.5 0a1.9 1.9 0 101.9 1.9 1.9 1.9 0 00-1.9-1.9z"/><path d="M11.8 0a11.8 11.8 0 1011.8 11.8A11.8 11.8 0 0011.8 0zm0 21.37a9.58 9.58 0 119.58-9.58 9.56 9.56 0 01-9.57 9.58z"/></svg><svg viewBox="0 0 24.8 23.6" id="admin-to" xmlns="http://www.w3.org/2000/svg"><path class="dcls-1" d="M12.4 0L0 9l4.7 14.6H20L24.8 9zm6.17 21.38H6.18L2.4 9.54l10-7.31 10.07 7.31z"/></svg><svg viewBox="0 0 214.899 281.457" id="arrow-ahead"><path d="M14.997 281.457a15 10.565 0 01-10.6-18.038l174.29-122.757L4.397 17.904a15 10.565 0 0121.21-14.938l184.9 130.23a15 10.565 0 010 14.939l-184.9 130.23a15 10.565 0 01-10.61 3.092z" data-name="1"/></svg><svg viewBox="0 0 215.08 281.456" id="arrow-back"><path d="M200.098 0a10.565 15-89.92 0110.575 18.053L36.212 140.567l174.118 123a10.565 15-89.92 01-21.23 14.91L4.38 147.987a10.565 15-89.92 01.021-14.939L189.484 3.077A10.565 15-89.92 01200.098 0z" data-name="1"/></svg><svg viewBox="0 0 512 512" id="arrow-forward" xmlns="http://www.w3.org/2000/svg"><path d="M202.1 450a15 15 0 01-10.6-25.61L365.79 250.1 191.5 75.81a15 15 0 0121.21-21.21l184.9 184.9a15 15 0 010 21.21l-184.9 184.9A15 15 0 01202.1 450z" data-name="1"/></svg><svg viewBox="0 0 27.84 23.14" id="basket" xmlns="http://www.w3.org/2000/svg"><path d="M27 7.52H.82A.8.8 0 000 8.3v.78a.8.8 0 00.82.78h.7l3.87 13.28h17l3.93-13.28H27a.8.8 0 00.82-.78V8.3a.8.8 0 00-.82-.78zM10.48 20a1.6 1.6 0 01-1.64 1.57A1.6 1.6 0 017.21 20v-7a1.6 1.6 0 011.63-1.57A1.6 1.6 0 0110.48 13zm5.08 0a1.64 1.64 0 01-3.28 0v-7a1.64 1.64 0 013.28 0zm5.07 0A1.6 1.6 0 0119 21.58 1.6 1.6 0 0117.36 20v-7A1.6 1.6 0 0119 11.42 1.6 1.6 0 0120.63 13z"/><path class="h1" d="M12.7 1.57a.75.75 0 00-.29-1.06l-.71-.4a.8.8 0 00-.42-.11.84.84 0 00-.7.38L6.84 6.44a.84.84 0 00-.11.3h2.78z"/><path d="M18.33 6.74h2.77a.67.67 0 00-.1-.3L17.26.38a.84.84 0 00-.7-.38.86.86 0 00-.43.11l-.7.4a.75.75 0 00-.29 1.06z"/></svg><svg viewBox="0 0 32 32" id="close_icon" xmlns="http://www.w3.org/2000/svg"><path d="M2 30L30 2m0 28L2 2"/></svg><svg viewBox="0 0 512 428.71" id="houme" xmlns="http://www.w3.org/2000/svg"><path d="M500.28 190.67l-216-180.86c-15.62-13.08-40.94-13.08-56.56 0l-216 180.86C-3.91 203.75-3.91 225 11.72 238c12 10 29.64 12.36 44.28 7l1.23 152.49c.22 27.74 25.63 31.17 58.77 31.17h280c33.14 0 59.27-3.43 59.38-31.17l.62-152.44c14.64 5.35 32.31 3 44.28-7 15.62-13.08 15.62-34.29 0-47.37zM326 361.72c0 9.25-8.95 16.75-20 16.75H206c-11.05 0-20-7.5-20-16.75V261.25c0-9.25 8.95-16.75 20-16.75h100c11.05 0 20 7.5 20 16.75z"/></svg><svg viewBox="0 0 502.664 502.664" id="icon" xmlns="http://www.w3.org/2000/svg"><path d="M153.821 358.226L0 274.337v-46.463l153.821-83.414v54.574L46.636 250.523l107.185 53.431v54.272zm26.273 29.358L282.103 115.08h32.227L212.084 387.584h-31.99zm168.749-29.358v-54.272l107.164-52.999-107.164-52.59v-53.927l153.821 83.522v46.183l-153.821 84.083z"/></svg><svg viewBox="0 0 63.99 47.46" id="mail" xmlns="http://www.w3.org/2000/svg"><path d="M63.09 2.19A5 5 0 0059 0H5A5 5 0 00.9 2.12l31.16 26z"/><path d="M32.09 32.33L0 5.57v36.89a5 5 0 005 5h54a5 5 0 005-5V5.7z"/>></svg><svg viewBox="0 0 12.74 22" id="odno" xmlns="http://www.w3.org/2000/svg"><path d="M6.37 3.33A2.35 2.35 0 114 5.68a2.35 2.35 0 012.37-2.35zm0 8A5.68 5.68 0 10.69 5.68a5.68 5.68 0 005.68 5.67zM8.67 16A10.79 10.79 0 0012 14.62a1.67 1.67 0 00-1.78-2.82 7.17 7.17 0 01-7.64 0 1.66 1.66 0 00-1.8 2.82A10.64 10.64 0 004.07 16L.9 19.16A1.67 1.67 0 002.08 22a1.63 1.63 0 001.17-.49l3.12-3.12 3.12 3.12a1.66 1.66 0 002.35-2.35z"/></svg><svg viewBox="0 0 20.5 21.25" id="order" xmlns="http://www.w3.org/2000/svg"><rect y="6" width="20.5" height="15.25" rx="1.16"/><path d="M4.91 5.5h1V2.66A.16.16 0 016 2.5h8.42a.16.16 0 01.16.16V5.5h1a1.16 1.16 0 001.16-1.16V1.16A1.16 1.16 0 0015.59 0H4.91a1.16 1.16 0 00-1.16 1.16v3.18A1.16 1.16 0 004.91 5.5z"/></svg><svg viewBox="0 0 477.16 477.07" id="phone" xmlns="http://www.w3.org/2000/svg"><path d="M475 380.27l-2.38-7.15c-5.62-16.72-24.06-34.16-41-38.75L369 317.24c-17-4.62-41.25 1.6-53.69 14L292.57 354a240.67 240.67 0 01-169.36-169.41l22.69-22.69c12.44-12.44 18.66-36.66 14-53.66l-17.06-62.72c-4.63-17-22.1-35.4-38.78-41L96.9 2.15c-16.72-5.57-40.56.06-53 12.5L10 48.62C3.9 54.65 0 71.9 0 72a400.56 400.56 0 00404.2 405.05c.56 0 18.31-3.81 24.37-9.84l33.94-33.94c12.49-12.43 18.06-36.27 12.49-53z"/></svg><svg viewBox="0 0 21.23 16.93" id="shop" xmlns="http://www.w3.org/2000/svg"><ellipse cx="14.29" cy="14.71" rx="2.18" ry="2.21"/><path d="M19.86 0H1.37C-.64 0 .16 2.11.16 2.11l2.68 8.09a1.46 1.46 0 001.36 1.21H17a1.45 1.45 0 001.35-1.21l2.69-8.09S21.87 0 19.86 0zm-3.32 8.8H4.68L4 6.62h13.18zm1.25-4.25H3.44l-.68-2.33h15.71zM6.93 12.5a2.22 2.22 0 102.18 2.21 2.2 2.2 0 00-2.18-2.21z"/></svg><svg data-name="Слой 1" viewBox="0 0 23.6 23.6" id="to-site" xmlns="http://www.w3.org/2000/svg"><circle cx="7.05" cy="11.8" r="1.9"/><circle cx="16.55" cy="11.8" r="1.9"/><path d="M11.8 0a11.8 11.8 0 1011.8 11.8A11.8 11.8 0 0011.8 0zm0 21.37a9.58 9.58 0 119.58-9.57 9.57 9.57 0 01-9.58 9.57z"/></svg><svg viewBox="0 0 20 20" id="trash" xmlns="http://www.w3.org/2000/svg"><g clip-path="url(#ra)" fill-opacity=".3"><path d="M18.572 2.857h-5v-.714A2.144 2.144 0 0011.428 0H8.572C7.388 0 6.429.96 6.429 2.143v.714h-5a.714.714 0 100 1.429h.776L3.572 19.35c.033.369.343.65.714.649h11.428c.37.002.681-.28.715-.65l1.366-15.064h.776a.714.714 0 100-1.429zM7.857 2.143c0-.395.32-.714.715-.714h2.857c.394 0 .714.32.714.714v.714H7.857v-.714zm7.205 16.428H4.938L3.643 4.286H16.36L15.062 18.57z"/><path d="M7.857 16.381v-.003l-.714-10a.716.716 0 00-1.429.101l.715 10a.714.714 0 00.714.664h.051a.714.714 0 00.663-.762zM10 5.714a.714.714 0 00-.714.715v10a.714.714 0 101.428 0v-10A.714.714 0 0010 5.714zm3.622 0a.716.716 0 00-.765.664l-.714 10a.714.714 0 00.66.764h.053a.713.713 0 00.715-.663l.715-10a.716.716 0 00-.664-.765z"/></g><defs><clipPath id="ra"><path d="M0 0h20v20H0z"/></clipPath></defs></svg><svg viewBox="0 0 505.04 413.67" id="twit" xmlns="http://www.w3.org/2000/svg"><path d="M0 367.23c56 5.1 106.1-8.9 151.5-42.9-7-1.6-13.4-1.6-19.5-3.1-35.7-8.5-60.4-30-74.9-63.5-.7-1.7-2.5-3.8-.9-5.5 1.2-1.3 3.5-.2 5.2 0a113.18 113.18 0 0037.6-2c.2-2.2-1.4-2-2.6-2.4-30.7-8.2-53-26.5-67.4-54.8a95.42 95.42 0 01-10.6-41.2c-.2-5.7.1-5.8 5.4-3.3a104 104 0 0040.9 10.1c-6.9-5.6-13.1-10.5-18.4-16.4a103.7 103.7 0 01-27-62.9c-1.5-19.6 2.6-37.9 11.1-55.5 1.9-3.9 3.6-3.6 6-.7 16.7 20.4 36.2 37.7 57.7 52.7a298.14 298.14 0 0050.9 28.4 303.56 303.56 0 0073.5 21.3c8 1.3 16.2 1.6 24.3 2.4 4.1.4 5.2-.8 4.4-5a99.06 99.06 0 018.1-62.3c16.1-33.6 43.1-54 79.8-59.4 32.6-4.8 61.9 4.5 86.2 27.4 3.7 3.5 7 4.4 12 3.1a224.66 224.66 0 0055.9-22.1c.5-.3 1.1-.4 2.9-1.1-8.2 24.1-22.7 41.9-43 55.5 4.7.9 18.6-1.6 28.2-4.6 9.2-2.9 18.4-5.5 27.2-9.4 1.2 1.3.1 2-.4 2.7-11.7 16.5-25.1 31.4-41.1 43.8-2.2 1.7-4.3 3.6-6.6 5.2-1.7 1.2-1.8 2.7-1.7 4.4a297.31 297.31 0 01-3.2 54.2 292 292 0 01-13.4 53.6 319.17 319.17 0 01-17.9 41.7 301.89 301.89 0 01-67.9 87.3 275.76 275.76 0 01-101.9 57.2 295.22 295.22 0 01-72.9 13 322.39 322.39 0 01-57.3-1.7 286.62 286.62 0 01-78.6-21.5c-12.9-5.5-25.1-12.1-37.3-19-1.7-.7-3.4-1.5-4.3-3.7z"/></svg><svg viewBox="0 0 72.54 42.66" id="vk" xmlns="http://www.w3.org/2000/svg"><path d="M70.69 41.25c-2.53 1.58-12.81 2-15.3.25a34.22 34.22 0 01-3.8-3.42A25.59 25.59 0 0149.11 36c-.58-.73-1-1.6-1.59-2.32-1-1.21-2.63-2.25-3.89-.76-1.89 2.23.3 6.61-2.23 8.28a4.1 4.1 0 01-2.76.64l-2.34.11a29.22 29.22 0 01-5.13-.24 21.06 21.06 0 01-4.78-2 22.54 22.54 0 01-8-5.65C12.46 27.21 4.51 17.8 1.39 9.2.75 7.41-.93 3.91.67 2.39c2.16-1.57 12.78-2 14.44.42a21.37 21.37 0 011.57 3.55 17.56 17.56 0 001.84 4 25.71 25.71 0 012.07 3.4 34.81 34.81 0 002.25 3.89c.59.85 2.14 2.52 3.12 2.65 2.4.31 2.25-5.52 2.07-6.94a28.32 28.32 0 01-.17-4.22c0-1.19.15-2.86-.55-3.83-1.15-1.58-3.7-.39-3.9-2.52.42-.6.33-1.13 3.15-2.06a11.56 11.56 0 015.1-.59c3 .24 6.14-.57 9 .4S43 5.32 42.91 7.66c-.13 3.19 0 6.31 0 9.55 0 1.48-.06 2.91 1.73 2.79s1.86-1.53 2.67-2.7c1.12-1.63 2.15-3.29 3.29-4.92 1.53-2.2 2-4.67 3.44-6.92.52-.81 1-2.57 1.76-3.21.61-.48 1.75-.27 2.48-.27H60c1.33 0 2.69 0 4 .08 2 .07 4.17-.36 6.12-.08 8.42 1.19-10.58 19.19-9.59 22.4.69 2.22 5 4.7 6.58 6.52 2.16 2.42 8.55 7.24 3.58 10.35z"/></svg><svg viewBox="0 0 414.76 418.14" id="what" xmlns="http://www.w3.org/2000/svg"><path d="M197.24.24C86.81 5.5-.33 97.47 0 208a206.49 206.49 0 0022.57 93.54L.55 408.43a8.07 8.07 0 009.77 9.48L115 393.1a206.49 206.49 0 0089.11 21.63c112.87 1.73 207-87.9 210.5-200.72C418.42 93.06 318.6-5.54 197.24.24zm125 322a162.47 162.47 0 01-187.09 30.62l-14.59-7.26-64.2 15.21 13.51-65.61-7.18-14.07A162.51 162.51 0 0192.56 92.56 162.38 162.38 0 01322.2 322.2z"/><path d="M308 252.35l-40.17-11.53a15 15 0 00-14.81 3.9l-9.83 10a14.65 14.65 0 01-15.91 3.36c-19-7.69-59-43.23-69.18-61a14.64 14.64 0 011.16-16.22l8.58-11.09a15 15 0 001.84-15.21l-16.9-38.23a15 15 0 00-23.37-5.33c-11.21 9.48-24.51 23.89-26.13 39.85-2.85 28.14 9.22 63.62 54.87 106.22 52.73 49.22 94.95 55.72 122.44 49.06 15.6-3.78 28.06-18.92 35.93-31.32a15 15 0 00-8.5-22.44z"/></svg></svg>