<svg xmlns="http://www.w3.org/1999/svg" viewBox="0 0 47.5 48.19">
<symbol id="account">
    <g><path d="M23.75,0A24,24,0,0,0,0,24.1,24,24,0,0,0,23.75,48.19,24,24,0,0,0,47.5,24.1,24,24,0,0,0,23.75,0Zm0,44.36A20.13,20.13,0,0,1,3.8,24.1a20.13,20.13,0,0,1,20-20.27,20.13,20.13,0,0,1,20,20.27A20.13,20.13,0,0,1,23.75,44.36Z"/><path d="M25.23,28.63a9.16,9.16,0,1,0-3.27,0c-3.51.5-7,2.77-11.27,6.76A2.38,2.38,0,0,0,12,39.43a95.58,95.58,0,0,0,23.48,0,2.3,2.3,0,0,0,2-2.31,2.33,2.33,0,0,0-.77-1.74C32.32,31.42,28.69,29.2,25.23,28.63Z"/></g>
    </symbol></svg>

<svg xmlns="http://www.w3.org/2000/svg" viewBox="0 0 27.84 23.14">
<symbol id="basket">
        <g><path class="" d="M27,7.52H.82A.8.8,0,0,0,0,8.3v.78a.8.8,0,0,0,.82.78h.7L5.39,23.14v0h17v0L26.32,9.86H27a.8.8,0,0,0,.82-.78V8.3A.8.8,0,0,0,27,7.52ZM10.48,20a1.6,1.6,0,0,1-1.64,1.57h0A1.6,1.6,0,0,1,7.21,20V13a1.6,1.6,0,0,1,1.63-1.57h0A1.6,1.6,0,0,1,10.48,13Zm5.08,0a1.64,1.64,0,0,1-3.28,0V13a1.64,1.64,0,0,1,3.28,0Zm5.07,0A1.6,1.6,0,0,1,19,21.58h0A1.6,1.6,0,0,1,17.36,20V13A1.6,1.6,0,0,1,19,11.42h0A1.6,1.6,0,0,1,20.63,13Z"/>
       <path class="1" d="M12.7,1.57A.75.75,0,0,0,12.41.51L11.7.11A.8.8,0,0,0,11.28,0a.84.84,0,0,0-.7.38L6.84,6.44a.84.84,0,0,0-.11.3H9.51Z"/>
       <path class="" d="M18.33,6.74H21.1a.67.67,0,0,0-.1-.3L17.26.38a.84.84,0,0,0-.7-.38.86.86,0,0,0-.43.11l-.7.4a.75.75,0,0,0-.29,1.06Z"/></g>
        </symbol>
</svg>
