        <svg xmlns="http://www.w3.org/2000/svg" viewBox="0 0 47.5 48.19"><defs></defs><path d="M23.75,0A24,24,0,0,0,0,24.1,24,24,0,0,0,23.75,48.19,24,24,0,0,0,47.5,24.1,24,24,0,0,0,23.75,0Zm0,44.36A20.13,20.13,0,0,1,3.8,24.1a20.13,20.13,0,0,1,20-20.27,20.13,20.13,0,0,1,20,20.27A20.13,20.13,0,0,1,23.75,44.36Z"/><path d="M25.23,28.63a9.16,9.16,0,1,0-3.27,0c-3.51.5-7,2.77-11.27,6.76A2.38,2.38,0,0,0,12,39.43a95.58,95.58,0,0,0,23.48,0,2.3,2.3,0,0,0,2-2.31,2.33,2.33,0,0,0-.77-1.74C32.32,31.42,28.69,29.2,25.23,28.63Z"/></svg>
