<svg xmlns="http://www.w3.org/2000/svg" viewBox="0 0 199.19 222.62"><defs><style>.cls-1{fill:#e6bd6c;}.cls-1,.cls-2,.cls-3{fill-rule:evenodd;}.cls-2{fill:#bc8d41;}.cls-3{fill:#83592b;}</style></defs><g id="Слой_2" data-name="Слой 2"><g id="Слой_1-2" data-name="Слой 1"><g id="Artboard"><g id="Group"><path id="New-shape-4-Difference-Difference-Difference-2" class="cls-1" d="M131.66,31C147.59,45.25,152,70.29,152,70.29s17,7.76,29.76,21.63c5.85,6.36,16.74,29.73,17.16,40.43l-4.45,21.16s-14,26.33-37.76,39.73-58,16.22-58,16.22-41.88-5.17-65.83-23.28-30-49.13-30-49.13S0,122.71,0,112.6s2.83-16,2.83-16,9.32-38.44,30.68-59.24S88.25,14.81,88.25,14.81s27.49,2,43.41,16.22ZM76.17,40.9C53.13,46.66,31,91,31,91s11-5.41,23.27-2.82S79.46,99,79.46,99s4.46-16.34,13.87-24.92,29.38-8.46,29.38-8.46S99.2,35.15,76.17,40.9Zm38.08,115c-1.06-12.58-4.7-29.62-4.7-29.62s7.64,2.11,17.16-5.17,20.92-24,20.92-24,16.22,6.46,20.92,19.51-2.11,32.68-2.11,32.68-12.7,14.57-25.86,21.39a56.32,56.32,0,0,1-26.8,5.88s1.53-8.11.47-20.69ZM30.56,130.47s6.11,18.45,19.75,29.62,34.79,15,34.79,15a143,143,0,0,0,2.35-24,143,143,0,0,0-2.35-24S71.46,121,57.83,121.77s-27.27,8.7-27.27,8.7Z"/><path id="New-shape-6" class="cls-2" d="M123,77.81s-14.28,2.35-19,16-1.18,38.79-1.18,38.79,1.29,33-4.47,46.54-17.39,7.29-17.39,7.29S52.66,189.71,32.44,174,1.65,130,1.65,130s3.52,20.57,13.4,36.91,24.44,21.86,24.44,21.86,24.92,12.46,41.85,15.75,26.56,1.41,26.56,1.41,25.86-3.52,45.84-13.4,33.38-30.09,33.38-30.09,6.47-13.75,8-24-1.88-16.92-1.88-16.92-6.7,21.27-15.52,33.14-22.8,20.93-22.8,20.93-16,9.63-27.27,13.16-16.69-.94-16.69-.94l.47-41.61-2.17-24.67c-.14-6-1.16-1.54-.18-13.65s14.57-16,14.57-16L123,77.81Z"/><path id="New-shape-4-Difference-Difference-Difference-Difference-Union-Union-Union-Union" class="cls-3" d="M29.94,81.45C34.08,73.6,53.81,38,74.29,32.91c23-5.76,46.54,24.69,46.54,24.69h-.24c2.66,3.34,8.94,12,8.94,19,0,8.93-7.29,14.81-7.29,14.81s2.69-11.14.47-19.51c-1.33-5-5.83-10.4-9.2-13.87h0c-8.92-8.4-23.46-18.87-37.81-15.28-15,3.75-29.66,23.92-38,37.49l-.22,0a62.74,62.74,0,0,1-4.55,6c-1.88,1.93-8,5.17-8,5.17l4.7-9.88.32-.12Zm79.66,46.78c1.88.32,8.59.88,16.64-5.28,9.52-7.29,20.92-24,20.92-24s16.22,6.46,20.92,19.51c.09.23.17.47.25.71a32,32,0,0,0-1.66-10.58c-4.7-13-20.92-19.51-20.92-19.51s-11.4,16.69-20.92,24-17.16,5.18-17.16,5.18.9,4.2,1.93,10ZM23.51,99s-6.94,2.35-9.64,8.46-.47,14.11-.47,14.11,7.32,14,19,9.52l0,.06.92-.46c.39-.17.75-.34,1.07-.51,5.1-2.4,14-6,23-6.5,13.63-.82,27.27,5.41,27.27,5.41s.05.28.15.79c-.69-6.2-1.56-10.66-1.56-10.66S69.58,113,56,113.78s-27.27,8.7-27.27,8.7,0,.07.07.2c-1.25-.3-9.12-2.34-10.41-8C16.93,108.61,23.51,99,23.51,99Zm163.62,2.59s10,16.88,11.75,30.09a35.39,35.39,0,0,1-4.6,22.74l-.09-.1-.23,1.1s-14,26.33-37.76,39.73-58,16.22-58,16.22-41.88-5.17-65.83-23.27-30-49.14-30-49.14S1.08,132.43.24,125.1c.41,2.42.71,4,.71,4s6,31,30,49.13,65.83,23.27,65.83,23.27,34.33-2.82,58-16.22c20.62-11.64,33.92-33.06,37.05-38.46a41,41,0,0,0,1.63-15.37c-.82-12.16-6.34-29.85-6.34-29.85ZM111.9,143.28c.18,1.56.34,3.11.47,4.59,1.06,12.57-.47,20.68-.47,20.68s.81.06,2.23,0a101.75,101.75,0,0,0-.35-10.85c-.38-4.58-1.11-9.74-1.88-14.46Z"/><path id="New-shape" class="cls-3" d="M74.76,188.3s9.92,7.54,16.92,8,11.07-6.17,11.07-6.17A43.83,43.83,0,0,0,111,169.26c1.58-12.8-1.88-30.33-1.88-30.33a69.88,69.88,0,0,1,5.64,20c1.18,10.68-.92,22.74-.92,22.74a34.39,34.39,0,0,1-5,11.81c-3.65,5.07-9.11,7.64-17.63,6.35S74.76,188.3,74.76,188.3Z"/><path id="New-shape-2" class="cls-3" d="M122.71,69.82s-11.4-3.47-20,.47S92,77.65,87.69,81.1c-10,8-5.18,38.32-5.18,38.32s4.23,14.12,4.24,34.79-5.86,27.44-5.86,27.44,9.15-3.94,11.73-17.09-1.41-35.5-1.41-35.5-6.46-23.51.94-39,30.56-20.22,30.56-20.22Z"/><path id="New-shape-3" class="cls-3" d="M91.92,15.05a115.37,115.37,0,0,1,24.45,10.57c12.81,7.41,21.86,20.69,21.86,20.69a68.39,68.39,0,0,1,8,21.16,71.42,71.42,0,0,1,0,22.33l4.47,3.29s2.87-15.44,1.17-26.56a50,50,0,0,0-7.27-19.11s-10.77-17.17-25.17-24.85a62.86,62.86,0,0,0-27.5-7.52Z"/><path id="New-shape-4" class="cls-3" d="M64.88,6.58S88.63.29,107,6.58a51.39,51.39,0,0,1,12.57,6.55,49.22,49.22,0,0,1,8.82,7.09,130.85,130.85,0,0,1,9.88,11.52S133,21.33,126.47,14.58A46.1,46.1,0,0,0,112.13,4.7S100.61.06,89.57,0,64.88,6.58,64.88,6.58Z"/><path id="New-shape-5" class="cls-3" d="M44,202.41s27.21,14.81,57.13,14.34,62.53-16.23,62.53-16.23-14.81,11.17-32,16.7S95,222.62,95,222.62s-17.45-1-30.32-6.58A70.39,70.39,0,0,1,44,202.41Z"/></g></g></g></g></svg>