 <svg xmlns="http://www.w3.org/2000/svg" viewBox="0 0 27.84 23.14"><defs></defs>
        <path class="" d="M27,7.52H.82A.8.8,0,0,0,0,8.3v.78a.8.8,0,0,0,.82.78h.7L5.39,23.14v0h17v0L26.32,9.86H27a.8.8,0,0,0,.82-.78V8.3A.8.8,0,0,0,27,7.52ZM10.48,20a1.6,1.6,0,0,1-1.64,1.57h0A1.6,1.6,0,0,1,7.21,20V13a1.6,1.6,0,0,1,1.63-1.57h0A1.6,1.6,0,0,1,10.48,13Zm5.08,0a1.64,1.64,0,0,1-3.28,0V13a1.64,1.64,0,0,1,3.28,0Zm5.07,0A1.6,1.6,0,0,1,19,21.58h0A1.6,1.6,0,0,1,17.36,20V13A1.6,1.6,0,0,1,19,11.42h0A1.6,1.6,0,0,1,20.63,13Z"/>
        <path class="1" d="M12.7,1.57A.75.75,0,0,0,12.41.51L11.7.11A.8.8,0,0,0,11.28,0a.84.84,0,0,0-.7.38L6.84,6.44a.84.84,0,0,0-.11.3H9.51Z"/>
        <path class="" d="M18.33,6.74H21.1a.67.67,0,0,0-.1-.3L17.26.38a.84.84,0,0,0-.7-.38.86.86,0,0,0-.43.11l-.7.4a.75.75,0,0,0-.29,1.06Z"/></svg>
