<?xml version="1.0" encoding="UTF-8" standalone="no"?>
<!-- Created with Inkscape (http://www.inkscape.org/) -->

<svg
   width="64.9608mm"
   height="54.76878mm"
   viewBox="0 0 64.9608 54.76878"
   version="1.1"
   id="svg971"
   inkscape:version="1.1 (c68e22c387, 2021-05-23)"
   sodipodi:docname="logo.svg"
   xmlns:inkscape="http://www.inkscape.org/namespaces/inkscape"
   xmlns:sodipodi="http://sodipodi.sourceforge.net/DTD/sodipodi-0.dtd"
   xmlns="http://www.w3.org/2000/svg"
   xmlns:svg="http://www.w3.org/2000/svg">
  <sodipodi:namedview
     id="namedview973"
     pagecolor="#ffffff"
     bordercolor="#666666"
     borderopacity="1.0"
     inkscape:pageshadow="2"
     inkscape:pageopacity="0.0"
     inkscape:pagecheckerboard="0"
     inkscape:document-units="mm"
     showgrid="false"
     inkscape:zoom="1.0482005"
     inkscape:cx="25.758431"
     inkscape:cy="92.06254"
     inkscape:window-width="1920"
     inkscape:window-height="1017"
     inkscape:window-x="-8"
     inkscape:window-y="-8"
     inkscape:window-maximized="1"
     inkscape:current-layer="layer1" />
  <defs
     id="defs968" />
  <g
     inkscape:label="Слой 1"
     inkscape:groupmode="layer"
     id="layer1"
     transform="translate(-55.334503,-51.149271)">
    <path
       inkscape:connector-curvature="0"
       id="path2232"
       d="m 96.12916,51.15661 a 12.175775,12.320452 0 0 0 -0.160714,0.006 v 10e-4 a 12.175775,12.320452 0 0 0 -1.211297,0.12041 12.175775,12.320452 0 0 0 -7.338052,4.0566 13.386156,13.269304 0 0 0 -11.710913,-4.04368 13.386156,13.269304 0 0 0 -10.795722,9.17308 h 3.060277 a 10.627743,10.318797 0 0 1 8.359179,-6.5319 10.627743,10.318797 0 0 1 1.057302,-0.10077 v -5.1e-4 a 10.627743,10.318797 0 0 1 0.786513,-0.007 v -5.1e-4 a 10.627743,10.318797 0 0 1 9.310026,5.88594 9.6391171,9.39196 0 0 1 7.405233,-5.54075 9.6391171,9.39196 0 0 1 10.953338,7.90133 9.6391171,9.39196 0 0 1 0.0424,0.416 6.7968134,6.9203916 0 0 1 3.6344,-1.79473 6.7968134,6.9203916 0 0 1 7.72408,5.82239 6.7968134,6.9203916 0 0 1 -5.55935,7.83725 8.8358574,6.8586024 0 0 1 4.42453,4.96197 8.8358574,6.8586024 0 0 1 -7.429,7.79642 l -0.016,0.002 a 8.8358574,6.8586024 0 0 1 -4.81986,-0.50488 6.6732348,6.4260777 0 0 1 1.04283,2.59519 6.6732348,6.4260777 0 0 1 -5.61051,7.30446 l -0.01188,0.002 A 6.6732348,6.4260777 0 0 1 96.753939,96.4054 v 2.74712 a 9.5155392,9.0212248 0 0 0 2.794146,0.009 l 0.01654,-0.002 a 9.5155392,9.0212248 0 0 0 8.050675,-9.77356 12.048896,9.3973308 0 0 0 1.58439,-0.0899 l 0.0217,-0.003 a 12.048896,9.3973308 0 0 0 10.13014,-10.68204 12.048896,9.3973308 0 0 0 -2.54197,-4.49636 9.4537095,9.0212248 0 0 0 3.38378,-8.31784 9.4537095,9.0212248 0 0 0 -10.74302,-7.58972 9.4537095,9.0212248 0 0 0 -1.71566,0.41031 12.175775,12.320452 0 0 0 -11.604974,-7.46104 z"
       style="fill:#351e10;fill-opacity:1;stroke:none;stroke-width:0.3;stroke-linecap:square;stroke-linejoin:miter;stroke-miterlimit:0;stroke-dasharray:none;stroke-opacity:1;paint-order:stroke fill markers" />
    <g
       transform="translate(25.436587,-113.9609)"
       id="g2456">
      <g
         id="g2448"
         transform="translate(1.3267903)">
        <path
           inkscape:connector-curvature="0"
           id="rect2360"
           d="m 33.250427,191.74165 c -2.592308,0 -4.679301,2.29891 -4.679301,5.15472 v 17.82786 c 0,2.85581 2.086993,5.15472 4.679301,5.15472 h 32.497757 c 2.592309,0 4.679302,-2.29891 4.679302,-5.15472 v -17.82786 c 0,-2.85581 -2.086993,-5.15472 -4.679302,-5.15472 z m 1.980759,2.95641 H 63.76691 c 1.961756,0 3.541385,1.57031 3.541385,3.52123 v 15.18202 c 0,1.95092 -1.579629,3.52123 -3.541385,3.52123 H 35.231186 c -1.961759,0 -3.540872,-1.57031 -3.540872,-3.52123 v -15.18202 c 0,-1.95092 1.579113,-3.52123 3.540872,-3.52123 z"
           style="opacity:1;fill:#351e10;fill-opacity:1;stroke:none;stroke-width:0.3;stroke-linecap:square;stroke-linejoin:miter;stroke-miterlimit:0;stroke-dasharray:none;stroke-opacity:1;paint-order:stroke fill markers" />
        <path
           inkscape:transform-center-y="6.6411147"
           inkscape:transform-center-x="-0.087383143"
           inkscape:export-filename="E:\open\OpenServer\domains\ZaBatonom\images\logo.png"
           inkscape:export-ydpi="96"
           inkscape:export-xdpi="96"
           inkscape:connector-curvature="0"
           id="path8182"
           d="m 48.947917,200.42708 a 11.490833,12.666907 0 0 0 -1.143082,0.124 11.490833,12.666907 0 0 0 -9.669177,10.65698 h 22.727295 a 11.490833,12.666907 0 0 0 0,-5.9e-4 11.490833,12.666907 0 0 0 -11.915036,-10.78039 z"
           style="opacity:1;fill:#eb712e;fill-opacity:1;stroke:none;stroke-width:3.37225;stroke-linejoin:miter;stroke-miterlimit:4;stroke-dasharray:none;stroke-opacity:1;paint-order:stroke markers fill" />
      </g>
      <g
         id="g2435">
        <path
           inkscape:connector-curvature="0"
           id="rect2366"
           transform="scale(0.26458333)"
           d="m 124,677.51953 v 50 h 60 v -50 h -11.20117 v 45 h -37.59766 v -45 z"
           style="opacity:1;fill:#351e10;fill-opacity:1;stroke:none;stroke-width:1.13386;stroke-linecap:square;stroke-linejoin:miter;stroke-miterlimit:0;stroke-dasharray:none;stroke-opacity:1;paint-order:stroke fill markers" />
        <path
           inkscape:connector-curvature="0"
           id="rect2383"
           transform="scale(0.26458333)"
           d="m 128,653.65625 c -8.31,0 -15,6.18249 -15,13.86328 v 1.13672 c 0,7.68079 6.69,13.86328 15,13.86328 h 52 c 8.31,0 15,-6.18249 15,-13.86328 v -1.13672 c 0,-7.68079 -6.69,-13.86328 -15,-13.86328 z m 6,9.43164 h 40 c 5.54,0 10,2.23001 10,5 0,2.76999 -4.46,5 -10,5 h -40 c -5.54,0 -10,-2.23001 -10,-5 0,-2.76999 4.46,-5 10,-5 z"
           style="opacity:1;fill:#351e10;fill-opacity:1;stroke:none;stroke-width:1.13386;stroke-linecap:square;stroke-linejoin:miter;stroke-miterlimit:0;stroke-dasharray:none;stroke-opacity:1;paint-order:stroke fill markers" />
      </g>
    </g>
    <text
       xml:space="preserve"
       style="font-style:normal;font-weight:normal;font-size:9.96102px;line-height:1.25;font-family:sans-serif;fill:#000000;fill-opacity:1;stroke:none;stroke-width:0.39886"
       x="90.629364"
       y="61.6931"
       id="text17873"
       transform="scale(0.82812094,1.2075531)"><tspan
         sodipodi:role="line"
         id="tspan17871"
         style="font-style:normal;font-variant:normal;font-weight:normal;font-stretch:normal;font-size:9.96102px;font-family:'Ink Free';-inkscape-font-specification:'Ink Free';stroke-width:0.39886"
         x="90.629364"
         y="61.6931">zBatonom</tspan></text>
  </g>
</svg>
