<?xml version="1.0" encoding="UTF-8" standalone="no"?>
<svg
   width="204.62457"
   height="169.40366"
   viewBox="0 0 204.62457 169.40366"
   version="1.1"
   id="svg1385"
   sodipodi:docname="2.svg"
   inkscape:version="1.1 (c68e22c387, 2021-05-23)"
   xmlns:inkscape="http://www.inkscape.org/namespaces/inkscape"
   xmlns:sodipodi="http://sodipodi.sourceforge.net/DTD/sodipodi-0.dtd"
   xmlns:xlink="http://www.w3.org/1999/xlink"
   xmlns="http://www.w3.org/2000/svg"
   xmlns:svg="http://www.w3.org/2000/svg">
  <sodipodi:namedview
     id="namedview1387"
     pagecolor="#ffffff"
     bordercolor="#666666"
     borderopacity="1.0"
     inkscape:pageshadow="2"
     inkscape:pageopacity="0.0"
     inkscape:pagecheckerboard="0"
     showgrid="false"
     inkscape:zoom="2.7368421"
     inkscape:cx="167.89423"
     inkscape:cy="88.605769"
     inkscape:window-width="1920"
     inkscape:window-height="1017"
     inkscape:window-x="-8"
     inkscape:window-y="-8"
     inkscape:window-maximized="1"
     inkscape:current-layer="svg1385" />
  <defs
     id="defs1325">
    <rect
       width="364"
       height="304"
       id="artboard_1"
       x="0"
       y="0" />
    <clipPath
       id="clip_1">
      <use
         xlink:href="#artboard_1"
         clip-rule="evenodd"
         id="use1322"
         x="0"
         y="0"
         width="100%"
         height="100%" />
    </clipPath>
  </defs>
  <use
     xlink:href="#artboard_1"
     stroke="none"
     fill="#ffffff"
     fill-opacity="0"
     id="use1327"
     x="0"
     y="0"
     width="100%"
     height="100%"
     transform="translate(7.384615,-2.8076962)" />
  <g
     id="Group-4">
    <path
       d="m 38.8419,39.0038 c 0,0 -15.9753,-1.2829 -25.6858,2.6531 C 3.44565,45.5929 0,54.7477 0,54.7477 l 1.56621,29.3591 c 0,0 10.49359,15.3776 35.70949,29.5162 25.2159,14.138 66.7203,15.587 66.7203,15.587 0,0 14.566,0.872 22.553,-6.301 7.988,-7.174 9.398,-22.395 9.398,-22.395 0,0 17.071,-11.7643 30.384,-23.04 13.313,-11.2757 22.867,-22.063 22.867,-22.063 l 0.626,-25.2046 c 0,0 -4.542,-2.1904 -25.999,-10.1061 C 151.71,15.6308 127.839,7.04277 114.285,2.3902 108.622,0.446397 109.564,-0.777504 103.683,0.566525 97.8021,1.91055 99.889,1.54419 94.0292,4.9399 L 49.1789,31.3761 Z"
       transform="translate(12.529648,39.893433)"
       id="New-shape-4"
       fill="#f1b966"
       fill-rule="evenodd"
       stroke="none" />
    <path
       d="M 180.688,-5.80799e-6 C 181.554,1.35341 182.666,3.40208 182.784,5.1484 c 0.196,2.89961 -2.349,4.9657 -2.349,4.9657 l -57.636,40.7916 c 0,0 -0.118,9.3755 -4.856,14.2694 -4.737,4.8939 -14.095,5.3062 -14.095,5.3062 0,0 -12.8042,2.6553 -30.3848,-0.9949 C 55.8825,65.8361 33.5249,55.8802 33.5249,55.8802 c 0,0 -11.9423,-3.9729 -20.5173,-10.6035 C 6.36841,40.143 1.74782,33.4161 -4.04643e-6,30.6406 L 1.41769,57.2157 c 0,0 10.49361,15.3776 35.70951,29.5159 25.2159,14.1384 66.7208,15.5874 66.7208,15.5874 0,0 14.565,0.872 22.553,-6.3015 7.988,-7.1739 9.397,-22.3946 9.397,-22.3946 0,0 17.072,-11.7642 30.385,-23.04 C 179.495,39.3072 189.049,28.52 189.049,28.52 L 189.656,4.09845 C 189.611,3.97116 189.485,3.6318 189.288,3.17236 Z"
       transform="translate(13.304642,66.81726)"
       id="New-shape-Intersect-3"
       fill="#c5864d"
       fill-rule="evenodd"
       stroke="none" />
    <path
       d="m 187.893,0 -0.075,0.0032635 -0.002,0.0563087 c 0,0 -9.751,10.7872278 -23.34,22.0629278 -13.588,11.2757 -31.013,23.04 -31.013,23.04 0,0 -1.439,15.2206 -9.592,22.3945 -8.153,7.174 -23.02,6.3012 -23.02,6.3012 0,0 -32.2092,-1.1014 -57.5206,-10.7562 C 42.7565,62.9579 42.1821,62.8168 41.6095,62.6798 32.6038,60.5241 27.7072,57.3482 22.815,55.0521 11.6394,49.807 3.51484,41.511 3.79942e-7,37.491 L 0.0293475,38.0412 c 0,0 10.4935525,15.3775 35.7095525,29.5158 25.2159,14.1384 66.7201,15.5871 66.7201,15.5871 0,0 14.566,0.8727 22.554,-6.3012 7.987,-7.1739 9.397,-22.3945 9.397,-22.3945 0,0 17.072,-11.7643 30.384,-23.04 13.313,-11.2758 22.867,-22.06295 22.867,-22.06295 z"
       transform="translate(14.409103,86.226135)"
       id="New-shape-Intersect-Difference-Difference-Difference-2"
       fill="#8b5a39"
       fill-rule="evenodd"
       stroke="none" />
    <g
       id="Group-3"
       transform="translate(43.118988,66.96405)">
      <path
         d="m 160.345,9.62395 0.143,-5.59423 C 160.442,3.90457 160.315,3.5709 160.116,3.11916 L 151.433,0 c 0.874,1.33071 1.997,3.34503 2.116,5.06207 0.198,2.85098 -2.372,4.88237 -2.372,4.88237 L 92.9812,50.0519 c 0,0 -0.1187,9.2182 -4.9024,14.0301 -4.7838,4.8118 -14.2327,5.2172 -14.2327,5.2172 0,0 -12.9281,2.6108 -30.6795,-0.9782 C 25.4153,64.7319 2.84059,54.943 2.84059,54.943 c 0,0 -1.08617,-0.3518 -2.8405861853,-1.0206 C 5.95483,57.0865 11.0639,58.8596 11.0639,58.8596 c 0,0 22.5747,10.4866 40.3261,14.3315 17.7513,3.8449 30.6794,1.048 30.6794,1.048 0,0 9.4489,-0.4343 14.2327,-5.5892 4.7839,-5.1548 4.9029,-15.0302 4.9029,-15.0302 L 159.4,10.6533 c 0,0 0.442,-0.3739 0.945,-1.02935 z"
         transform="translate(0,0.6902401)"
         id="New-shape-Intersect-3-Difference-Difference-Difference"
         fill="#8b5a39"
         fill-rule="evenodd"
         stroke="none" />
      <path
         d="m 0,0.02708 c 0,0 5.79496,-0.331677 8.77075,1.32652 C 11.7465,3.01179 9.86709,7.3231 9.39723,9.97621 8.92737,12.6293 6.8913,11.966 6.8913,11.966 Z"
         transform="translate(151.0906)"
         id="path1333"
         fill="#8b5a39"
         fill-rule="evenodd"
         stroke="none" />
    </g>
    <path
       d="m 38.8419,39.0038 c 0,0 -15.9753,-1.2829 -25.6858,2.6531 C 3.44565,45.5929 0,54.7477 0,54.7477 l 1.56621,29.3591 c 0,0 10.49359,15.3776 35.70949,29.5162 25.2159,14.138 66.7203,15.587 66.7203,15.587 0,0 14.566,0.872 22.553,-6.301 7.988,-7.174 9.398,-22.395 9.398,-22.395 0,0 17.071,-11.7643 30.384,-23.04 13.313,-11.2757 22.867,-22.063 22.867,-22.063 l 0.626,-25.2046 c 0,0 -4.542,-2.1904 -25.999,-10.1061 C 151.71,15.6308 127.839,7.04277 114.285,2.3902 108.622,0.446397 109.564,-0.777504 103.683,0.566525 97.8021,1.91055 99.889,1.54419 94.0292,4.9399 L 49.1789,31.3761 Z"
       transform="translate(0,10.045929)"
       id="New-shape-3"
       fill="#f1b966"
       fill-rule="evenodd"
       stroke="none" />
    <path
       d="M 180.688,-3.61782e-6 C 181.554,1.35341 182.666,3.40208 182.784,5.1484 c 0.196,2.89961 -2.349,4.9657 -2.349,4.9657 l -57.636,40.7916 c 0,0 -0.118,9.3755 -4.856,14.2694 -4.737,4.8939 -14.095,5.3062 -14.095,5.3062 0,0 -12.8042,2.6553 -30.3848,-0.9949 C 55.8825,65.8361 33.5249,55.8802 33.5249,55.8802 c 0,0 -11.9423,-3.9729 -20.5173,-10.6035 C 6.36841,40.143 1.74782,33.4161 -4.03849e-6,30.6406 L 1.41769,57.2157 c 0,0 10.49361,15.3776 35.70951,29.5159 25.2159,14.1384 66.7208,15.5874 66.7208,15.5874 0,0 14.565,0.872 22.553,-6.3015 7.988,-7.1739 9.397,-22.3946 9.397,-22.3946 0,0 17.072,-11.7642 30.385,-23.0399 C 179.495,39.3072 189.049,28.52 189.049,28.52 L 189.656,4.09845 C 189.611,3.97116 189.485,3.6318 189.288,3.17236 Z"
       transform="translate(0.7749939,36.969757)"
       id="New-shape-Intersect-2"
       fill="#c5864d"
       fill-rule="evenodd"
       stroke="none" />
    <path
       d="m 187.893,0 -0.075,0.0032635 -0.002,0.0563106 c 0,0 -9.751,10.7872259 -23.34,22.0629259 -13.588,11.2757 -31.013,23.04 -31.013,23.04 0,0 -1.439,15.2206 -9.592,22.3946 -8.153,7.1739 -23.02,6.3011 -23.02,6.3011 0,0 -32.2092,-1.1014 -57.5207,-10.7563 C 42.7565,62.9579 42.182,62.8168 41.6095,62.6798 32.6038,60.5241 27.7072,57.3482 22.815,55.0521 11.6394,49.807 3.51484,41.511 -8.88691e-7,37.491 L 0.0293474,38.0412 c 0,0 10.4935526,15.3775 35.7095526,29.5159 25.2159,14.1383 66.7201,15.587 66.7201,15.587 0,0 14.566,0.8728 22.554,-6.3011 7.987,-7.174 9.397,-22.3946 9.397,-22.3946 0,0 17.072,-11.7643 30.384,-23.04 13.313,-11.2757 22.867,-22.06293 22.867,-22.06293 z"
       transform="translate(1.8794403,56.37863)"
       id="New-shape-Intersect-Difference-Difference-Difference"
       fill="#8b5a39"
       fill-rule="evenodd"
       stroke="none" />
    <g
       id="Group"
       transform="translate(30.589203,37.116516)">
      <path
         d="m 160.345,9.62395 0.143,-5.59424 C 160.442,3.90455 160.315,3.57089 160.116,3.11916 L 151.433,4.9493e-6 C 152.307,1.33072 153.43,3.34502 153.549,5.06205 c 0.198,2.85098 -2.372,4.88237 -2.372,4.88237 L 92.9813,50.0518 c 0,0 -0.1186,9.2183 -4.9024,14.0301 -4.7838,4.8119 -14.2327,5.2173 -14.2327,5.2173 0,0 -12.9281,2.6108 -30.6794,-0.9783 C 25.4154,64.7319 2.84072,54.943 2.84072,54.943 c 0,0 -1.08622,-0.3519 -2.8407352588,-1.0207 C 5.95488,57.0864 11.0641,58.8596 11.0641,58.8596 c 0,0 22.5746,10.4866 40.326,14.3315 17.7514,3.8449 30.6794,1.048 30.6794,1.048 0,0 9.449,-0.4343 14.2328,-5.5892 4.7837,-5.1548 4.9027,-15.0302 4.9027,-15.0302 l 58.196,-42.9664 c 0,0 0.441,-0.3739 0.944,-1.02935 z"
         transform="translate(0,0.6902395)"
         id="path1339"
         fill="#8b5a39"
         fill-rule="evenodd"
         stroke="none" />
      <path
         d="m 0,0.02708 c 0,0 5.79496,-0.331677 8.77075,1.32652 C 11.7465,3.01179 9.86709,7.3231 9.39723,9.97621 8.92737,12.6293 6.8913,11.966 6.8913,11.966 Z"
         transform="translate(151.09073)"
         id="path1341"
         fill="#8b5a39"
         fill-rule="evenodd"
         stroke="none" />
    </g>
    <g
       id="Group-2"
       transform="translate(31.522171,16.58194)">
      <path
         d="M 6.10352e-5,3.36762 C 0.015358,1.53849 2.83662,0.0310287 6.30169,4.73022e-4 9.76662,-0.0300522 12.5632,1.42813 12.548,3.25729 12.5327,5.08643 9.71139,6.59386 6.24642,6.62447 2.78138,6.65487 -0.0152664,5.19679 6.10352e-5,3.36762 Z"
         transform="rotate(-9.0000007,498.69838,-272.99384)"
         id="Ellipse"
         fill="#d29442"
         fill-rule="evenodd"
         stroke="none" />
      <path
         d="M 1.01745e-4,2.72121 C 0.0186746,1.26064 2.56683,0.0428009 5.69154,0.00109863 8.81629,-0.0405502 11.3344,1.10963 11.3158,2.57016 11.2973,4.03069 8.7491,5.24866 5.62439,5.29024 2.49962,5.33196 -0.0184377,4.18171 1.01745e-4,2.72121 Z"
         transform="rotate(-14.000001,270.9528,-36.392099)"
         id="Ellipse-2"
         fill="#d29442"
         fill-rule="evenodd"
         stroke="none" />
      <path
         d="M 0,1.98983 C 0,0.890879 1.68291,0 3.7589,0 5.83488,0 7.51779,0.890879 7.51779,1.98983 7.51779,3.08879 5.83488,3.97967 3.7589,3.97967 1.68291,3.97967 0,3.08879 0,1.98983 Z"
         transform="translate(74.35338,65.66452)"
         id="Ellipse-3"
         fill="#d29442"
         fill-rule="evenodd"
         stroke="none" />
      <path
         d="M 6.10352e-5,2.35458 C 0.0119133,1.07456 1.70738,0.0205383 3.78718,2.97546e-4 5.8668,-0.0198975 7.54326,1.00132 7.53136,2.28129 7.51959,3.56133 5.82402,4.61534 3.74426,4.63562 1.6646,4.6558 -0.0117455,3.63456 6.10352e-5,2.35458 Z"
         transform="rotate(-10.000001,344.22302,-396.05305)"
         id="Ellipse-4"
         fill="#d29442"
         fill-rule="evenodd"
         stroke="none" />
      <path
         d="M 9.15527e-5,3.37751 C 0.0185738,1.54947 2.84453,0.0376549 6.31201,6.9046e-4 9.77948,-0.0362358 12.5754,1.41564 12.5568,3.24361 12.5384,5.07155 9.71236,6.5834 6.24497,6.62027 2.77753,6.65729 -0.0184174,5.20547 9.15527e-5,3.37751 Z"
         transform="rotate(-11,251.69868,-198.50342)"
         id="Ellipse-5"
         fill="#d29442"
         fill-rule="evenodd"
         stroke="none" />
      <path
         d="M 1.06812e-4,2.03225 C 0.014925,0.937401 1.57568,0.0276794 3.48623,6.17981e-4 5.39678,-0.0265121 6.93353,0.839096 6.91868,1.93407 6.90393,3.02897 5.34311,3.93852 3.43258,3.9656 1.52202,3.99274 -0.0147247,3.12724 1.06812e-4,2.03225 Z"
         transform="rotate(-15,259.89946,-135.30125)"
         id="Ellipse-6"
         fill="#d29442"
         fill-rule="evenodd"
         stroke="none" />
      <path
         d="M 1.18256e-4,2.03436 C 0.0158615,0.94001 1.57817,0.0295563 3.48969,7.01904e-4 5.40123,-0.0281219 6.93811,0.835686 6.92233,1.93015 6.90667,3.02441 5.34429,3.93492 3.43275,3.9637 1.52122,3.99248 -0.0155716,3.12878 1.18256e-4,2.03436 Z"
         transform="rotate(-16,253.0604,-167.30894)"
         id="Ellipse-7"
         fill="#d29442"
         fill-rule="evenodd"
         stroke="none" />
      <path
         d="M 1.19209e-4,2.38378 C 0.0184259,1.10715 2.14637,0.0403671 4.75298,0.00111008 7.3596,-0.038063 9.45783,0.965195 9.4395,2.24184 9.42116,3.51852 7.29324,4.58533 4.68662,4.62461 2.08,4.66378 -0.0182104,3.66058 1.19209e-4,2.38378 Z"
         transform="rotate(-16,185.09778,-34.44279)"
         id="Ellipse-8"
         fill="#d29442"
         fill-rule="evenodd"
         stroke="none" />
      <path
         d="M 1.28746e-5,2.34402 C 0.00601864,1.06231 2.11553,0.0129662 4.71173,1.18256e-4 7.30795,-0.0127296 9.40772,1.01585 9.4017,2.29753 9.39573,3.57903 7.28621,4.62846 4.69,4.64125 2.0938,4.65418 -0.00598192,3.62555 1.28746e-5,2.34402 Z"
         transform="rotate(-4.9999998,637.1471,20.196194)"
         id="Ellipse-14"
         fill="#d29442"
         fill-rule="evenodd"
         stroke="none" />
      <path
         d="M 0,1.6582 C 0,0.742399 1.40243,0 3.13241,0 4.8624,0 6.26482,0.742399 6.26482,1.6582 6.26482,2.57399 4.8624,3.31639 3.13241,3.31639 1.40243,3.31639 0,2.57399 0,1.6582 Z"
         transform="translate(96.28026,35.817017)"
         id="Ellipse-9"
         fill="#d29442"
         fill-rule="evenodd"
         stroke="none" />
      <path
         d="M 0,1.6582 C 0,0.742399 1.40243,0 3.13241,0 4.8624,0 6.26482,0.742399 6.26482,1.6582 6.26482,2.57399 4.8624,3.31639 3.13241,3.31639 1.40243,3.31639 0,2.57399 0,1.6582 Z"
         transform="translate(103.79808,23.214722)"
         id="Ellipse-24"
         fill="#d29442"
         fill-rule="evenodd"
         stroke="none" />
      <path
         d="M 0,1.6582 C 0,0.742399 1.40243,0 3.13241,0 4.8624,0 6.26482,0.742399 6.26482,1.6582 6.26482,2.57399 4.8624,3.31639 3.13241,3.31639 1.40243,3.31639 0,2.57399 0,1.6582 Z"
         transform="translate(86.256546,48.41931)"
         id="Ellipse-25"
         fill="#d29442"
         fill-rule="evenodd"
         stroke="none" />
      <path
         d="M 0,1.6582 C 0,0.742399 1.40243,0 3.13241,0 4.8624,0 6.26482,0.742399 6.26482,1.6582 6.26482,2.57399 4.8624,3.31639 3.13241,3.31639 1.40243,3.31639 0,2.57399 0,1.6582 Z"
         transform="translate(106.93047,46.429474)"
         id="Ellipse-23"
         fill="#d29442"
         fill-rule="evenodd"
         stroke="none" />
      <path
         d="M 0,2.32147 C 0,1.03936 1.54267,0 3.44566,0 5.34864,0 6.89131,1.03936 6.89131,2.32147 6.89131,3.60359 5.34864,4.64295 3.44566,4.64295 1.54267,4.64295 0,3.60359 0,2.32147 Z"
         transform="translate(75.60634,37.143585)"
         id="Ellipse-10"
         fill="#d29442"
         fill-rule="evenodd"
         stroke="none" />
      <path
         d="M 0,1.98983 C 0,0.890879 1.54267,0 3.44566,0 5.34864,0 6.89131,0.890879 6.89131,1.98983 6.89131,3.08879 5.34864,3.97967 3.44566,3.97967 1.54267,3.97967 0,3.08879 0,1.98983 Z"
         transform="translate(76.232834)"
         id="Ellipse-33"
         fill="#d29442"
         fill-rule="evenodd"
         stroke="none" />
      <path
         d="M 0,0.994917 C 0,0.445439 1.12194,0 2.50593,0 3.88992,0 5.01186,0.445439 5.01186,0.994917 5.01186,1.54439 3.88992,1.98983 2.50593,1.98983 1.12194,1.98983 0,1.54439 0,0.994917 Z"
         transform="translate(119.46013,35.153748)"
         id="Ellipse-34"
         fill="#d29442"
         fill-rule="evenodd"
         stroke="none" />
      <path
         d="M 1.44958e-4,2.36258 C 0.0174026,1.08527 1.58024,0.0276604 3.49082,5.34058e-4 5.40136,-0.0266266 6.93627,0.986988 6.91871,2.26426 6.90145,3.54162 5.33878,4.59915 3.42819,4.62635 1.51751,4.65348 -0.017128,3.63999 1.44958e-4,2.36258 Z"
         transform="rotate(-15,164.56757,-500.9305)"
         id="Ellipse-35"
         fill="#d29442"
         fill-rule="evenodd"
         stroke="none" />
      <path
         d="M 0,2.32147 C 0,1.03936 1.54267,0 3.44565,0 5.34864,0 6.89131,1.03936 6.89131,2.32147 6.89131,3.60359 5.34864,4.64295 3.44565,4.64295 1.54267,4.64295 0,3.60359 0,2.32147 Z"
         transform="translate(33.00554,37.143585)"
         id="Ellipse-15"
         fill="#d29442"
         fill-rule="evenodd"
         stroke="none" />
      <path
         d="M 0,2.32147 C 0,1.03936 1.54267,0 3.44566,0 5.34864,0 6.89131,1.03936 6.89131,2.32147 6.89131,3.60359 5.34864,4.64295 3.44566,4.64295 1.54267,4.64295 0,3.60359 0,2.32147 Z"
         transform="translate(75.60631,21.888184)"
         id="Ellipse-16"
         fill="#d29442"
         fill-rule="evenodd"
         stroke="none" />
      <path
         d="M 0,2.32147 C 0,1.03936 1.54267,0 3.44565,0 5.34864,0 6.89131,1.03936 6.89131,2.32147 6.89131,3.60359 5.34864,4.64295 3.44565,4.64295 1.54267,4.64295 0,3.60359 0,2.32147 Z"
         transform="translate(59.317795,31.174072)"
         id="Ellipse-17"
         fill="#d29442"
         fill-rule="evenodd"
         stroke="none" />
      <path
         d="M 0,2.32147 C 0,1.03936 1.54267,0 3.44566,0 5.34864,0 6.89131,1.03936 6.89131,2.32147 6.89131,3.60359 5.34864,4.64295 3.44566,4.64295 1.54267,4.64295 0,3.60359 0,2.32147 Z"
         transform="translate(65.582596,19.898346)"
         id="Ellipse-21"
         fill="#d29442"
         fill-rule="evenodd"
         stroke="none" />
      <path
         d="M 0,1.6582 C 0,0.742399 1.54267,0 3.44565,0 5.34864,0 6.89131,0.742399 6.89131,1.6582 6.89131,2.57399 5.34864,3.31639 3.44565,3.31639 1.54267,3.31639 0,2.57399 0,1.6582 Z"
         transform="translate(49.920547,8.62262)"
         id="Ellipse-22"
         fill="#d29442"
         fill-rule="evenodd"
         stroke="none" />
      <path
         d="M 0,1.98983 C 0,0.890879 1.40243,0 3.13241,0 4.8624,0 6.26483,0.890879 6.26483,1.98983 6.26483,3.08879 4.8624,3.97967 3.13241,3.97967 1.40243,3.97967 0,3.08879 0,1.98983 Z"
         transform="translate(59.317795,51.07242)"
         id="Ellipse-11"
         fill="#d29442"
         fill-rule="evenodd"
         stroke="none" />
      <path
         d="M 0,1.98983 C 0,0.890879 1.40243,0 3.13241,0 4.8624,0 6.26483,0.890879 6.26483,1.98983 6.26483,3.08879 4.8624,3.97967 3.13241,3.97967 1.40243,3.97967 0,3.08879 0,1.98983 Z"
         transform="translate(59.317795,51.07242)"
         id="Ellipse-26"
         fill="#d29442"
         fill-rule="evenodd"
         stroke="none" />
      <path
         d="M 0,1.98983 C 0,0.890879 1.40243,0 3.13241,0 4.8624,0 6.26483,0.890879 6.26483,1.98983 6.26483,3.08879 4.8624,3.97967 3.13241,3.97967 1.40243,3.97967 0,3.08879 0,1.98983 Z"
         transform="translate(59.317795,51.07242)"
         id="Ellipse-27"
         fill="#d29442"
         fill-rule="evenodd"
         stroke="none" />
      <path
         d="M 0,1.98983 C 0,0.890879 1.40243,0 3.13241,0 4.8624,0 6.26483,0.890879 6.26483,1.98983 6.26483,3.08879 4.8624,3.97967 3.13241,3.97967 1.40243,3.97967 0,3.08879 0,1.98983 Z"
         transform="translate(59.317795,51.07242)"
         id="Ellipse-28"
         fill="#d29442"
         fill-rule="evenodd"
         stroke="none" />
      <path
         d="M 0,1.98983 C 0,0.890879 1.40243,0 3.13241,0 4.8624,0 6.26483,0.890879 6.26483,1.98983 6.26483,3.08879 4.8624,3.97967 3.13241,3.97967 1.40243,3.97967 0,3.08879 0,1.98983 Z"
         transform="translate(59.317795,51.07242)"
         id="Ellipse-29"
         fill="#d29442"
         fill-rule="evenodd"
         stroke="none" />
      <path
         d="M 0,1.98983 C 0,0.890879 1.40243,0 3.13241,0 4.8624,0 6.26482,0.890879 6.26482,1.98983 6.26482,3.08879 4.8624,3.97967 3.13241,3.97967 1.40243,3.97967 0,3.08879 0,1.98983 Z"
         transform="translate(113.1953,12.602295)"
         id="Ellipse-30"
         fill="#d29442"
         fill-rule="evenodd"
         stroke="none" />
      <path
         d="M 1.297e-4,2.02942 C 0.0159607,0.935078 1.43742,0.0267658 3.17507,5.76019e-4 4.91279,-0.0255318 6.30878,0.84045 6.29305,1.93478 6.27737,3.02911 4.85592,3.93744 3.11823,3.96358 1.38042,3.98969 -0.0154572,3.12374 1.297e-4,2.02942 Z"
         transform="rotate(-16,79.522055,-250.17237)"
         id="Ellipse-31"
         fill="#d29442"
         fill-rule="evenodd"
         stroke="none" />
      <path
         d="M 6.86646e-5,2.0197 C 0.0111084,0.92293 1.42547,0.0187778 3.15932,2.8801e-4 4.89311,-0.0182018 6.28964,0.855888 6.27846,1.95267 6.26734,3.04941 4.85285,3.95352 3.11911,3.97204 1.38532,3.99053 -0.0110397,3.11642 6.86646e-5,2.0197 Z"
         transform="rotate(-11,108.28242,-439.92388)"
         id="Ellipse-32"
         fill="#d29442"
         fill-rule="evenodd"
         stroke="none" />
      <path
         d="M 2.20299e-4,2.35596 C 0.0195789,1.07986 1.3038,0.0253334 2.86865,4.4632e-4 4.43347,-0.024353 5.68634,0.989941 5.66699,2.26602 5.64765,3.54209 4.36346,4.5967 2.7986,4.62149 1.23379,4.64624 -0.0190907,3.63204 2.20299e-4,2.35596 Z"
         transform="rotate(-16.999999,138.14056,-35.06816)"
         id="Ellipse-12"
         fill="#d29442"
         fill-rule="evenodd"
         stroke="none" />
      <path
         d="M 2.20299e-4,2.35596 C 0.0195789,1.07986 1.3038,0.0253334 2.86865,4.4632e-4 4.43347,-0.024353 5.68634,0.989941 5.66699,2.26602 5.64765,3.54209 4.36346,4.5967 2.7986,4.62149 1.23379,4.64624 -0.0190907,3.63204 2.20299e-4,2.35596 Z"
         transform="rotate(-16.999999,138.14056,-35.06816)"
         id="Ellipse-18"
         fill="#d29442"
         fill-rule="evenodd"
         stroke="none" />
      <path
         d="M 7.62939e-6,2.31278 C -0.00360489,1.0308 1.25592,-0.00467682 2.81319,1.52588e-5 4.37045,0.00465584 5.63586,1.0476 5.63941,2.32959 5.64296,3.61155 4.38358,4.64707 2.82631,4.64241 1.2689,4.63777 0.00361633,3.59476 7.62939e-6,2.31278 Z"
         transform="rotate(3.0000003,-497.37966,971.3602)"
         id="Ellipse-19"
         fill="#d29442"
         fill-rule="evenodd"
         stroke="none" />
      <path
         d="M 2.21252e-4,2.35591 C 0.0195408,1.07984 1.30379,0.0252914 2.8686,4.4632e-4 4.43345,-0.0243797 5.68632,0.989975 5.66699,2.26601 5.64765,3.54208 4.36342,4.59668 2.79858,4.62149 1.23372,4.64636 -0.0191269,3.63197 2.21252e-4,2.35591 Z"
         transform="rotate(-16.999999,103.25035,-84.439185)"
         id="Ellipse-20"
         fill="#d29442"
         fill-rule="evenodd"
         stroke="none" />
      <path
         d="M 2.20299e-4,2.35595 C 0.0195541,1.07984 1.30378,0.025322 2.86862,4.4632e-4 4.43345,-0.0243416 5.68633,0.990032 5.66699,2.26602 5.64767,3.5421 4.36343,4.59674 2.79859,4.62149 1.23375,4.64632 -0.0191011,3.63199 2.20299e-4,2.35595 Z"
         transform="rotate(-16.999999,149.96814,22.412867)"
         id="Ellipse-13"
         fill="#d29442"
         fill-rule="evenodd"
         stroke="none" />
    </g>
    <path
       d="m 91.7797,0 c 0,0 2.0361,3.06766 -3.7589,10.6124 C 82.2258,18.1572 73.4031,22.404 64.8409,23.5464 57.0266,24.589 40.6431,23.7122 24.4328,20.5616 8.22259,17.411 0,9.94917 0,9.94917 c 0,0 42.3659,8.87133 61.082,5.30623 C 79.7982,11.6903 91.7797,0 91.7797,0 Z"
       transform="translate(51.371567,127.01776)"
       id="New-shape-6"
       fill="#8b5a39"
       fill-rule="evenodd"
       stroke="none" />
    <path
       d="m 0.313241,9.28589 c 0,0 12.999559,10.11501 32.890359,18.24021 19.8908,8.1251 21.7703,9.3688 43.8538,12.2706 22.0836,2.9018 24.8246,1.4924 36.6496,-4.643 4.105,-2.1299 9.084,-8.2909 9.084,-8.2909 0,0 3.445,-4.1455 4.698,-8.9543 1.253,-4.8088 3.133,-13.59719 3.133,-13.59719 0,0 -7.205,1.65819 -7.205,1.65819 -2.698,9.5677 -8.609,19.4811 -13.156,21.8882 -8.771,4.6429 -9.241,4.8917 -19.421,5.3062 C 80.6596,33.5784 69.2263,30.8424 69.2263,30.8424 64.45,29.6781 59.3104,29.4637 53.2511,27.1944 50.9593,26.3361 47.7877,25.6439 45.42,24.8729 38.0751,22.4813 30.6822,19.6707 20.6739,14.5921 7.43948,7.87643 0,0 0,0 Z"
       transform="translate(13.782623,106.78778)"
       id="New-shape-5"
       fill="#f1b966"
       fill-rule="evenodd"
       stroke="none" />
    <path
       d="m 0,20.9293 c 0,0 23.8063,-14.75789 36.336,-19.89829 12.5296,-5.14041 47.6127,10.61249 47.6127,10.61249 0,0 -21.9269,-4.97463 -33.8301,-6.30118 C 38.2154,4.01576 30.0712,7.99543 30.0712,7.99543 Z"
       transform="translate(61.395294)"
       id="New-shape-7"
       fill="#8b5a39"
       fill-rule="evenodd"
       stroke="none" />
  </g>
</svg>
