<?xml version="1.0" encoding="UTF-8" standalone="no"?>
<svg
   width="192.60486"
   height="191.92416"
   viewBox="0 0 192.60486 191.92416"
   version="1.1"
   id="svg19"
   sodipodi:docname="about-5.svg"
   inkscape:version="1.1 (c68e22c387, 2021-05-23)"
   xmlns:inkscape="http://www.inkscape.org/namespaces/inkscape"
   xmlns:sodipodi="http://sodipodi.sourceforge.net/DTD/sodipodi-0.dtd"
   xmlns:xlink="http://www.w3.org/1999/xlink"
   xmlns="http://www.w3.org/2000/svg"
   xmlns:svg="http://www.w3.org/2000/svg">
  <sodipodi:namedview
     id="namedview21"
     pagecolor="#ffffff"
     bordercolor="#666666"
     borderopacity="1.0"
     inkscape:pageshadow="2"
     inkscape:pageopacity="0.0"
     inkscape:pagecheckerboard="0"
     showgrid="false"
     inkscape:zoom="1.6345776"
     inkscape:cx="190.56911"
     inkscape:cy="131.83834"
     inkscape:window-width="1920"
     inkscape:window-height="1017"
     inkscape:window-x="-8"
     inkscape:window-y="-8"
     inkscape:window-maximized="1"
     inkscape:current-layer="Artboard" />
  <defs
     id="defs6">
    <rect
       width="509"
       height="509"
       id="artboard_1"
       x="0"
       y="0" />
    <clipPath
       id="clip_1">
      <use
         xlink:href="#artboard_1"
         clip-rule="evenodd"
         id="use3"
         x="0"
         y="0"
         width="100%"
         height="100%" />
    </clipPath>
  </defs>
  <g
     id="Artboard"
     clip-path="url(#clip_1)"
     transform="translate(-63.193964,-17.433732)">
    <use
       xlink:href="#artboard_1"
       stroke="none"
       fill="#ffffff"
       fill-opacity="0"
       id="use8"
       x="0"
       y="0"
       width="100%"
       height="100%" />
    <g
       id="Group"
       transform="matrix(1.7352425,0,0,1.8870454,63.193964,17.433732)">
      <path
         d="M 0,15.3843 C 0,6.88778 4.35484,0 9.7268,0 c 5.372,0 9.7268,6.88778 9.7268,15.3843 0,0.0643 -2e-4,0.1285 -7e-4,0.1925 1.9559,-0.2469 3.8744,-0.1197 5.6331,0.4163 4.0116,1.2224 6.9329,4.6169 8.3888,9.0889 0.3151,-0.0076 0.6373,-0.0113 0.9669,-0.0113 6.5456,0 13.5384,7.0408 18.3093,11.3958 4.4952,4.1033 9.3244,7.9118 11.8868,13.2799 1.5956,-0.4928 3.3233,-0.7446 5.1663,-0.7446 5.2536,0 8.5748,2.7647 12.0874,6.7378 1.5376,-0.761 3.2054,-1.3624 4.9778,-1.7702 10.4678,-2.4089 20.6237,2.8472 22.6827,11.7398 2.06,8.8926 -4.756,18.0541 -15.2238,20.4629 -2.6265,0.6044 -5.2333,0.7263 -7.6974,0.4293 -3.4446,6.2315 -8.9307,10.2627 -15.1102,10.2627 -5.0344,0 -9.6087,-2.6757 -12.9936,-7.037 -1.9571,2.8886 -4.2669,4.8542 -6.9203,5.3051 C 47.846,95.7713 4.10959,82.6734 9.63681,59.968 6.6696,56.9725 4.21534,50.643 2.86505,45.5819 1.24,39.4912 1.23683,35.4936 2.86198,30.1953 3.13555,29.3034 3.46145,28.4459 3.83359,27.6245 1.50358,24.8138 0,20.3768 0,15.3843 Z"
         id="Ellipse-Union"
         fill="#f1bd67"
         fill-rule="evenodd"
         stroke="none" />
      <path
         d="M 3.9768e-6,21.0252 C 1.1532,19.6901 2.32267,18.5271 3.2184,17.6364 3.29,17.5652 3.35985,17.4957 3.4278,17.4281 4.17307,16.6859 4.79528,13.0578 5.1443,12.0151 6.32568,8.48564 4.85016,5.32718 3.16959,3.13132 4.80314,1.1664 6.84153,0 9.05217,0 9.41025,0 9.76381,0.0306042 10.1119,0.0902491 11.5877,1.30863 13.4911,2.26413 15.3093,3.60521 c 2.1215,2.82207 3.4697,7.05159 3.4697,11.77909 0,0.0643 -3e-4,0.1285 -8e-4,0.1925 1.9559,-0.2469 3.8744,-0.1197 5.6331,0.4163 4.0116,1.2224 6.9329,4.6169 8.3889,9.0889 0.3151,-0.0076 0.6373,-0.0113 0.9669,-0.0113 6.5455,0 13.5383,7.0408 18.3093,11.3958 4.4951,4.1033 9.3244,7.9118 11.8868,13.2799 1.5956,-0.4928 3.3233,-0.7446 5.1663,-0.7446 5.2536,0 8.5747,2.7647 12.0874,6.7378 1.5376,-0.7609 3.2053,-1.3623 4.9777,-1.7702 10.4678,-2.4088 20.6234,2.8473 22.6834,11.7399 0.936,4.0411 0.039,8.1377 -2.201,11.631 -0.643,-0.8701 -1.393,-1.8992 -2.118,-2.8953 -1.414,-1.9422 -2.736,-3.7588 -3.005,-4.0266 -2.3875,-2.3777 -6.6249,-5.413 -11.7293,-5.413 -11.5805,0 -11.325,9.6372 -7.1521,17.9484 0.1024,0.2038 0.276,0.4946 0.4857,0.846 0.6516,1.092 1.652,2.7683 1.9465,4.2323 -0.5933,0.9274 -1.2349,1.7963 -1.9194,2.5996 -1.5079,-0.4206 -3.897,-2.2164 -4.2318,-2.5498 -1.7041,-1.697 -3.7734,-3.4728 -5.1495,-4.8432 -1.466,-1.4599 -1.4374,-4.8502 -3.1469,-6.5526 -1.7674,-1.76 -1.0464,-5.8853 -2.8608,-7.6922 -1.2905,-1.285 0,-9.4015 0,-9.4015 0,0 -4.8975,-0.5584 -5.7217,-0.2849 -2.1517,0.7143 -4.0242,2.0133 -5.1495,3.1339 -1.8006,1.7931 -0.799,5.8648 -2.0026,8.2619 -0.14,0.279 -0.0512,0.8146 0.0383,1.3541 0.1033,0.6225 0.2074,1.2502 -0.0383,1.4949 -0.5431,0.5409 -0.4266,2.482 -0.3388,3.9426 0.0278,0.4636 0.0528,0.8788 0.0528,1.1855 0,1.7714 0.7158,3.8734 1.4375,5.993 0.6603,1.939 1.3256,3.8926 1.4525,5.6213 -1.1577,1.6158 -2.434,2.9101 -3.827,3.7673 -3.0326,-1.9173 -6.6952,-8.6458 -7.6455,-10.5384 -2.6145,-5.2074 -5.1495,-11.1708 -5.1495,-18.5182 0,-0.4162 -0.0232,-0.9372 -0.0486,-1.5086 -0.0917,-2.0628 -0.2127,-4.7837 0.6208,-5.6137 1.072,-1.0676 0.1613,-4.719 1.1443,-5.6979 2.1369,-2.128 0.9145,-7.7482 2.8608,-9.6864 0.3558,-0.3544 -1.1544,-1.548 -1.5988,-1.8993 -0.0655,-0.0517 -0.1078,-0.0852 -0.1177,-0.095 -1.9412,-1.9332 -4.5431,-3.6866 -7.4381,-5.1281 -3.3356,-1.6609 -10.35,3.4695 -11.7294,4.8432 -2.8984,2.8864 -8.2596,1.6361 -10.299,5.6979 -0.6174,1.2298 -1.9721,7.377 -2.8608,8.2619 -1.1445,1.1397 -1.1444,6.8361 -1.1443,8.8004 v 4.8746 c 0,0.4638 -0.075,2.1562 -0.1606,3.1824 C 8.54212,67.6596 7.9898,63.9624 8.96218,59.968 6.72429,57.7088 4.77819,53.5531 3.37742,49.4755 c 0.34707,-1.6428 1.00106,-3.0803 2.05296,-4.1278 2.05541,-2.0469 0.8235,-6.518 2.57474,-8.2619 3.55138,-3.5367 5.73178,-8.272 8.86858,-11.3958 1.7949,-1.7874 -2.6321,-6.524 -5.4356,-5.1281 -3.25606,1.6213 -3.28235,2.414 -5.43556,4.5583 -1.08239,1.0779 -2.49175,2.8259 -3.67151,4.6243 0.24176,-0.7309 0.5189,-1.4379 0.82792,-2.12 C 1.75829,25.9349 0.656272,23.6576 3.9768e-6,21.0252 Z"
         transform="translate(0.67463684)"
         id="Ellipse-Union-2-Intersect"
         fill="#d1a14e"
         fill-rule="evenodd"
         stroke="none" />
      <path
         d="M 4.05032,0.327053 C 8.25791,1.68301 11.2272,7.40311 11.2408,14.2973 12.6837,13.6088 14.17,13.1135 15.6478,12.8262 14.8776,5.54724 10.8758,0 6.05488,0 5.36773,0 4.69721,0.112701 4.05032,0.327053 Z M -2.95409e-6,28.545 C 4.56753,20.6228 13.5953,16.725 20.3005,18.7683 c 3.1017,0.9452 5.5517,3.1889 7.1764,6.2252 -0.4342,-0.0044 -0.864,0.0181 -1.2882,0.0702 -10.2541,1.259 -16.19811,7.7814 -18.67999,17.7936 -1.23775,4.9933 -1.92289,10.2045 -1.39347,16.8194 0.52941,6.615 1.67892,8.9791 1.67892,8.9791 L 11.1814,49.2953 c 1.5451,-5.2131 6.1319,-11.1757 10.0954,-15.1805 1.687,-2.8418 4.0155,-4.6174 7.7808,-5.6655 0.5228,-0.0224 1.0661,-0.0334 1.6313,-0.0334 6.5455,0 13.5383,7.0408 18.3092,11.3958 1.3536,1.2355 2.7374,2.4443 4.0805,3.6771 l -5.0212,7.2231 c -1.6209,3.6689 -1.1441,6.8377 -1.1441,6.8377 -2.0919,10.1345 2.8499,27.4196 8.7077,31.7477 0,0 -3.0683,-16.8227 -1.1912,-27.2067 0.0819,-0.4526 0.1732,-0.8929 0.2744,-1.319 0.5582,-2.3492 4.6604,-8.3224 5.9409,-9.4889 0.0614,-0.056 0.1212,-0.1116 0.1792,-0.1669 1.3186,-0.3169 2.7196,-0.4781 4.1945,-0.4781 4.1206,0 7.0524,1.7008 9.8202,4.3515 -0.2118,0.0307 -0.3308,0.0496 -0.3308,0.0496 0,0 -8.4266,17.8133 6.2119,27.9053 0,0 -6.7797,-19.018 1.3215,-24.7043 1.0831,-0.7602 1.7419,-1.3744 2.0705,-1.868 9.7214,-1.3398 18.7289,3.7961 20.6549,12.1126 0.457,1.9756 0.477,3.9645 0.116,5.8897 2.219,-3.4838 3.105,-7.5632 2.173,-11.5876 -2.06,-8.8926 -12.2156,-14.1487 -22.6835,-11.7398 -1.5057,0.3465 -2.9359,0.8327 -4.2749,1.4377 -3.783,-4.4006 -7.1878,-7.5446 -12.7902,-7.5446 -1.8063,0 -3.5019,0.2419 -5.0709,0.7154 C 59.5394,41.1734 55.2812,37.76 51.2868,34.1138 46.5159,29.7588 39.523,22.718 32.9775,22.718 c -0.6315,0 -1.2358,0.0138 -1.8147,0.0418 C 29.7786,17.9922 26.7784,14.347 22.5891,13.0704 14.733,10.6763 3.68844,16.4381 0.365131,27.2727 0.232589,27.7048 0.110878,28.1283 -2.95409e-6,28.545 Z"
         transform="translate(3.5729675,1.1395874)"
         id="Group-Difference-Union-Union"
         fill="#855c31"
         fill-rule="evenodd"
         stroke="none" />
      <path
         d="M 0,0 C 0,0 21.7272,22.207 60.6246,27.3147 63.0795,26.2381 45.6438,23.2359 30.3107,16.6482 17.1676,11.0014 6.57807,1.72565 0,0 v 0"
         transform="rotate(9.0000007,-56.163742,210.73441)"
         id="New-shape-8"
         fill="#66421c"
         fill-rule="evenodd"
         stroke="none" />
      <path
         d="M 0,0 C 0,0 12.5977,26.2215 38.9168,26.2317 47.5851,26.2351 34.9317,25.9284 22.3216,19.3862 11.5865,13.8169 1.27043,2.06738 0,0"
         transform="rotate(-7.0000005,660.58468,-50.999823)"
         id="New-shape-2-7"
         fill="#66421c"
         fill-rule="evenodd"
         stroke="none" />
    </g>
  </g>
</svg>
