<?xml version="1.0" encoding="UTF-8" standalone="no"?>
<svg
   width="199.98047"
   height="223.50079"
   viewBox="0 0 199.98047 223.50079"
   version="1.1"
   id="svg19"
   sodipodi:docname="1.svg"
   inkscape:version="1.1 (c68e22c387, 2021-05-23)"
   xmlns:inkscape="http://www.inkscape.org/namespaces/inkscape"
   xmlns:sodipodi="http://sodipodi.sourceforge.net/DTD/sodipodi-0.dtd"
   xmlns:xlink="http://www.w3.org/1999/xlink"
   xmlns="http://www.w3.org/2000/svg"
   xmlns:svg="http://www.w3.org/2000/svg">

  <defs
     id="defs6">
    <rect
       width="509"
       height="509"
       id="artboard_1"
       x="0"
       y="0" />
    <clipPath
       id="clip_1">
      <use
         xlink:href="#artboard_1"
         clip-rule="evenodd"
         id="use3"
         x="0"
         y="0"
         width="100%"
         height="100%" />
    </clipPath>
  </defs>
  <g
     id="Artboard"
     clip-path="url(#clip_1)"
     transform="translate(-61,-4.499176)">
    <use
       xlink:href="#artboard_1"
       stroke="none"
       fill="#ffffff"
       fill-opacity="0"
       id="use8"
       x="0"
       y="0"
       width="100%"
       height="100%" />
    <path
       d="m 132.182,16.2846 c 15.99,14.2785 20.372,39.4134 20.372,39.4134 0,0 17.089,7.7883 29.881,21.7129 5.871,6.3911 16.806,29.8461 17.228,40.5931 l -4.47,21.241 c 0,0 -14.094,26.433 -37.901,39.886 -23.807,13.452 -58.2741,16.284 -58.2741,16.284 0,0 -42.0471,-5.192 -66.0909,-23.365 C 8.88318,153.878 2.84262,122.725 2.84262,122.725 2.84262,122.725 0,108.328 0,98.1796 0,88.0313 2.84263,82.131 2.84263,82.131 c 0,0 9.35697,-38.5874 30.79507,-59.4742 C 55.0758,1.77007 88.595,0 88.595,0 c 0,0 27.597,2.00608 43.587,16.2846 z M 76.4668,26.1969 C 53.338,31.9792 31.1531,76.4668 31.1531,76.4668 c 0,0 11.0924,-5.4282 23.3649,-2.8321 12.2725,2.5961 25.2529,10.8564 25.2529,10.8564 0,0 4.4842,-16.4026 13.9245,-25.0169 9.4406,-8.6143 29.5016,-8.4963 29.5016,-8.4963 0,0 -23.6014,-30.5632 -46.7302,-24.781 z M 114.7,141.605 c -1.062,-12.626 -4.72,-29.737 -4.72,-29.737 0,0 7.67,2.124 17.229,-5.192 9.558,-7.3164 21.005,-24.073 21.005,-24.073 0,0 16.284,6.4903 21.004,19.589 4.72,13.098 -2.124,32.805 -2.124,32.805 0,0 -12.744,14.633 -25.961,21.477 -13.216,6.844 -26.905,5.9 -26.905,5.9 0,0 1.534,-8.142 0.472,-20.769 z M 30.6811,116.117 c 0,0 6.1362,18.526 19.8247,29.737 13.6886,11.21 34.9293,15.104 34.9293,15.104 0,0 2.3601,-12.036 2.3601,-24.073 0,-12.036 -2.3601,-24.073 -2.3601,-24.073 0,0 -13.6885,-6.254 -27.377,-5.428 -13.6885,0.826 -27.377,8.733 -27.377,8.733 z"
       id="New-shape-4-Difference-Difference-Difference-2"
       fill="#e6bd6c"
       fill-rule="evenodd"
       stroke="none"
       transform="translate(61,19.368103)" />
    <path
       d="m 121.781,0 c 0,0 -14.338,2.36009 -19.117,16.0486 -4.7794,13.6885 -1.18,38.9414 -1.18,38.9414 0,0 1.298,33.1593 -4.4843,46.73 -5.7822,13.57 -17.4647,7.316 -17.4647,7.316 0,0 -28.3211,3.304 -48.6178,-12.5084 C 10.6204,80.715 0,52.3939 0,52.3939 c 0,0 3.54013,20.6508 13.4525,37.0534 9.9124,16.4027 24.5449,21.9487 24.5449,21.9487 0,0 25.017,12.509 42.0096,15.813 16.9927,3.304 26.669,1.416 26.669,1.416 0,0 25.961,-3.54 46.022,-13.453 20.06,-9.912 33.513,-30.2089 33.513,-30.2089 0,0 6.49,-13.8065 8.024,-24.0728 1.534,-10.2664 -1.888,-16.9927 -1.888,-16.9927 0,0 -6.726,21.3588 -15.576,33.2773 -8.851,11.9184 -22.893,21.0047 -22.893,21.0047 0,0 -16.108,9.6764 -27.377,13.2164 -11.27,3.54 -16.757,-0.944 -16.757,-0.944 l 0.472,-41.7735 -2.182,-24.7633 c -0.131,-6.0138 -1.163,-1.5464 -0.178,-13.7061 0.985,-12.1596 14.633,-16.0486 14.633,-16.0486 z"
       transform="translate(62.65204,82.61844)"
       id="New-shape-6"
       fill="#bc8d41"
       fill-rule="evenodd"
       stroke="none" />
    <path
       d="M 29.819,49.4609 C 33.972,41.5793 53.7823,5.86696 74.3384,0.727953 97.4672,-5.05426 121.068,25.5089 121.068,25.5089 c 0,0 -0.085,-5e-4 -0.246,9e-4 2.669,3.3571 8.979,12.0435 8.979,19.1157 0,8.9683 -7.316,14.8685 -7.316,14.8685 0,0 2.695,-11.1798 0.472,-19.5887 -1.338,-5.0608 -5.853,-10.4414 -9.236,-13.9238 l -0.002,3e-4 C 104.764,17.5483 90.1678,7.037 75.7544,10.6403 60.6647,14.4128 45.9768,34.6602 37.5894,48.2797 c -0.0752,0.0152 -0.15,0.0306 -0.2245,0.0462 -1.407,2.0103 -3.4191,4.7955 -4.5638,5.9759 -1.8881,1.9471 -8.0243,5.1922 -8.0243,5.1922 l 4.7202,-9.9124 z m 79.975,46.9586 c 1.884,0.3215 8.618,0.8872 16.703,-5.3012 9.558,-7.3163 21.004,-24.0729 21.004,-24.0729 0,0 16.285,6.4902 21.005,19.5887 0.085,0.2352 0.166,0.4725 0.243,0.7118 -0.024,-3.6803 -0.482,-7.3578 -1.659,-10.6243 -4.72,-13.0984 -21.005,-19.5887 -21.005,-19.5887 0,0 -11.446,16.7566 -21.004,24.0729 -9.559,7.3163 -17.229,5.1922 -17.229,5.1922 0,0 0.903,4.2232 1.942,10.0215 z M 23.3608,67.046 c 0,0 -6.9623,2.3601 -9.6764,8.4963 -2.7141,6.1362 -0.4721,14.1605 -0.4721,14.1605 0,0 7.3479,14.0382 19.0528,9.5589 l 0.0312,0.062 c 0.2855,-0.1439 0.5946,-0.2974 0.9258,-0.4589 0.3933,-0.1736 0.7515,-0.3454 1.0764,-0.5151 5.1201,-2.4049 14.0836,-5.9817 23.0471,-6.5226 13.6885,-0.826 27.377,5.4282 27.377,5.4282 0,0 0.0547,0.2788 0.1473,0.7939 -0.685,-6.2266 -1.5634,-10.7063 -1.5634,-10.7063 0,0 -13.6885,-6.2542 -27.377,-5.4282 -13.6885,0.826 -27.377,8.7323 -27.377,8.7323 0,0 0.0225,0.068 0.0679,0.1983 C 27.3638,90.553 19.4711,88.5031 18.1685,82.8586 16.7525,76.7223 23.3608,67.046 23.3608,67.046 Z m 164.2622,2.5962 c 0,0 10.005,16.9494 11.8,30.2091 1.796,13.2597 -4.618,22.8297 -4.618,22.8297 l -0.091,-0.098 -0.233,1.105 c 0,0 -14.095,26.433 -37.902,39.886 -23.806,13.452 -58.2733,16.284 -58.2733,16.284 0,0 -42.047,-5.192 -66.0909,-23.364 C 8.17099,138.321 2.13043,107.168 2.13043,107.168 c 0,0 -1.288425,-6.526 -2.13043,-13.8866 0.40978,2.4313 0.714378,3.9739 0.714378,3.9739 0,0 6.040562,31.1527 30.084422,49.3257 24.0438,18.173 66.0909,23.365 66.0909,23.365 0,0 34.4663,-2.832 58.2733,-16.285 20.694,-11.693 34.05,-33.194 37.189,-38.617 1.015,-3.135 2.122,-8.35 1.643,-15.4287 -0.826,-12.2135 -6.372,-29.9731 -6.372,-29.9731 z M 112.1,111.528 c 0.186,1.574 0.347,3.122 0.472,4.607 1.062,12.627 -0.472,20.769 -0.472,20.769 0,0 0.815,0.056 2.24,0.042 0.066,-3.058 -0.002,-6.734 -0.352,-10.898 -0.386,-4.594 -1.116,-9.78 -1.888,-14.52 z"
       transform="translate(61.240158,36.81305)"
       id="New-shape-4-Difference-Difference-Difference-Difference-Union-Union-Union-Union"
       fill="#83592b"
       fill-rule="evenodd"
       stroke="none" />
    <path
       d="m 0,49.5618 c 0,0 9.96699,7.5681 16.9926,8.0243 7.0257,0.4562 11.1099,-6.1995 11.1099,-6.1995 0,0 6.6542,-8.0948 8.2429,-20.9415 C 37.9341,17.5985 34.4574,0 34.4574,0 c 0,0 4.4798,9.33816 5.6642,20.0607 1.1844,10.7226 -0.9266,22.8296 -0.9266,22.8296 0,0 -1.3112,6.7737 -4.9737,11.8637 -3.6625,5.09 -9.1454,7.6703 -17.7007,6.3723 C 7.96529,59.8282 0,49.5618 0,49.5618 Z"
       transform="translate(136.05075,143.98068)"
       id="New-shape"
       fill="#83592b"
       fill-rule="evenodd"
       stroke="none" />
    <path
       d="m 41.9921,1.41625 c 0,0 -11.4464,-3.48113 -20.0607,0.47202 C 13.3171,5.84141 11.1612,9.27714 6.82682,12.7447 -3.20355,20.769 1.63463,51.2141 1.63463,51.2141 c 0,0 4.2438,14.1763 4.24816,34.9293 C 5.88714,106.896 0,113.693 0,113.693 c 0,0 9.19127,-3.965 11.783,-17.1652 2.5917,-13.2007 -1.416,-35.6374 -1.416,-35.6374 0,0 -6.49029,-23.6008 0.944,-39.1774 C 18.7453,6.13642 41.9921,1.41625 41.9921,1.41625 Z"
       transform="translate(142.20444,73.17789)"
       id="New-shape-2"
       fill="#83592b"
       fill-rule="evenodd"
       stroke="none" />
    <path
       d="m 0,2.59411e-4 c 0,0 11.6824,3.186110589 24.5449,10.620340589 12.8625,7.4343 21.9488,20.7688 21.9488,20.7688 0,0 6.0182,9.7944 8.0243,21.2408 2.0061,11.4464 0,22.4208 0,22.4208 l 4.4842,3.3041 c 0,0 2.8867,-15.5017 1.18,-26.6689 -1.7067,-11.1673 -7.2988,-19.18 -7.2988,-19.18 0,0 -10.8105,-17.2402 -25.2704,-24.95366 C 13.1531,-0.160928 0,2.59411e-4 0,2.59411e-4 Z"
       transform="translate(153.27939,19.603851)"
       id="New-shape-3"
       fill="#83592b"
       fill-rule="evenodd"
       stroke="none" />
    <path
       d="m 0,6.60863 c 0,0 23.8369,-6.313229 42.2456,0 4.5797,1.57061 8.8234,3.92267 12.6149,6.57017 0,0 4.1683,2.4476 8.8618,7.1183 4.6936,4.6707 9.9124,11.5645 9.9124,11.5645 0,0 -5.2512,-10.4434 -11.8004,-17.2287 C 55.285,7.84768 47.4377,4.72056 47.4377,4.72056 c 0,0 -11.5644,-4.6611688 -22.6568,-4.720170695 C 13.6885,-0.0586125 0,6.60863 0,6.60863 Z"
       transform="translate(126.1384,4.499176)"
       id="New-shape-4"
       fill="#83592b"
       fill-rule="evenodd"
       stroke="none" />
    <path
       d="m 0,1.88807 c 0,0 27.318,14.86853 57.3501,14.39653 C 87.3822,15.8126 120.128,0 120.128,0 c 0,0 -14.868,11.2104 -32.0967,16.7566 -17.2287,5.5462 -36.8174,5.4282 -36.8174,5.4282 0,0 -17.5237,-1.003 -30.4451,-6.6082 C 7.84729,9.97137 0,1.88807 0,1.88807 Z"
       transform="translate(105.13361,205.81497)"
       id="New-shape-5"
       fill="#83592b"
       fill-rule="evenodd"
       stroke="none" />
  </g>
</svg>
