<?xml version="1.0" encoding="UTF-8" standalone="no"?>
<svg
   width="196.37793"
   height="192.27486"
   viewBox="0 0 196.37793 192.27486"
   version="1.1"
   id="svg972"
   sodipodi:docname="6.svg"
   inkscape:version="1.1 (c68e22c387, 2021-05-23)"
   xmlns:inkscape="http://www.inkscape.org/namespaces/inkscape"
   xmlns:sodipodi="http://sodipodi.sourceforge.net/DTD/sodipodi-0.dtd"
   xmlns:xlink="http://www.w3.org/1999/xlink"
   xmlns="http://www.w3.org/2000/svg"
   xmlns:svg="http://www.w3.org/2000/svg">
  <sodipodi:namedview
     id="namedview974"
     pagecolor="#ffffff"
     bordercolor="#666666"
     borderopacity="1.0"
     inkscape:pageshadow="2"
     inkscape:pageopacity="0.0"
     inkscape:pagecheckerboard="0"
     showgrid="false"
     inkscape:zoom="0.9183223"
     inkscape:cx="115.97236"
     inkscape:cy="168.24159"
     inkscape:window-width="1920"
     inkscape:window-height="1017"
     inkscape:window-x="-8"
     inkscape:window-y="-8"
     inkscape:window-maximized="1"
     inkscape:current-layer="svg972" />
  <defs
     id="defs920">
    <rect
       width="460"
       height="906"
       id="artboard_1"
       x="0"
       y="0" />
    <clipPath
       id="clip_1">
      <use
         xlink:href="#artboard_1"
         clip-rule="evenodd"
         id="use917"
         x="0"
         y="0"
         width="100%"
         height="100%" />
    </clipPath>
  </defs>
  <use
     xlink:href="#artboard_1"
     stroke="none"
     fill="#ffffff"
     fill-opacity="0"
     id="use922"
     x="0"
     y="0"
     width="100%"
     height="100%"
     transform="translate(-114.1409,-50.025097)" />
  <path
     d="m 98.167479,58.433773 c -0.91169,-1.06571 -0.39559,-2.8919 1.15262,-4.07864 1.547951,-1.18696 3.542161,-1.28503 4.453751,-0.21926 0.91169,1.06579 0.39566,2.89181 -1.15251,4.07873 -1.54818,1.18695 -3.542231,1.28493 -4.453861,0.21917 z"
     id="Ellipse-31"
     fill="#d19945"
     fill-rule="evenodd"
     stroke="none" />
  <path
     d="m 98.167479,58.433773 c -0.91169,-1.06571 -0.39559,-2.8919 1.15262,-4.07864 1.547951,-1.18696 3.542161,-1.28503 4.453751,-0.21926 0.91169,1.06579 0.39566,2.89181 -1.15251,4.07873 -1.54818,1.18695 -3.542231,1.28493 -4.453861,0.21917 z"
     id="Ellipse-32"
     fill="#d19945"
     fill-rule="evenodd"
     stroke="none" />
  <path
     d="m 98.167479,58.433773 c -0.91169,-1.06571 -0.39559,-2.8919 1.15262,-4.07864 1.547951,-1.18696 3.542161,-1.28503 4.453751,-0.21926 0.91169,1.06579 0.39566,2.89181 -1.15251,4.07873 -1.54818,1.18695 -3.542231,1.28493 -4.453861,0.21917 z"
     id="Ellipse-33"
     fill="#d19945"
     fill-rule="evenodd"
     stroke="none" />
  <path
     d="m 98.167479,58.433773 c -0.91169,-1.06571 -0.39559,-2.8919 1.15262,-4.07864 1.547951,-1.18696 3.542161,-1.28503 4.453751,-0.21926 0.91169,1.06579 0.39566,2.89181 -1.15251,4.07873 -1.54818,1.18695 -3.542231,1.28493 -4.453861,0.21917 z"
     id="Ellipse-34"
     fill="#d19945"
     fill-rule="evenodd"
     stroke="none" />
  <path
     d="m 133.25192,70.161333 c 0,-2.05662 1.61536,-3.72384 3.60802,-3.72384 1.99265,0 3.60801,1.66722 3.60801,3.72384 0,2.05662 -1.61536,3.72385 -3.60801,3.72385 -1.99266,0 -3.60802,-1.66723 -3.60802,-3.72385 z"
     id="Ellipse-30"
     fill="#d19945"
     fill-rule="evenodd"
     stroke="none" />
  <path
     d="m 57.275219,35.024757 c -37.069,25.496796 -56.8524199,59.544196 -44.18741,76.046993 5.58486,7.277 16.54711,9.928 30.23681,8.43 q 0.4679,1.513 1.0744,2.977 0.6065,1.463 1.3465,2.863 0.74,1.401 1.6069,2.727 0.867,1.325 1.8534,2.564 l 38.8579,48.817 q 0.5023,0.631 1.0341,1.238 0.5317,0.606 1.0916,1.187 0.5599,0.581 1.1467,1.134 0.5869,0.554 1.1993,1.079 0.6124,0.525 1.249,1.02 0.6366,0.496 1.296,0.96 0.6594,0.465 1.3401,0.898 0.6806,0.433 1.3811,0.833 0.7005,0.4 1.4191,0.766 0.7186,0.367 1.453801,0.699 0.7352,0.331 1.4853,0.628 0.7502,0.297 1.5135,0.558 0.7633,0.26 1.5382,0.485 0.7748,0.224 1.5595,0.411 0.7846,0.187 1.5772,0.337 0.7926,0.15 1.5919,0.262 0.798,0.112 1.602,0.186 0.803,0.075 1.609,0.11 0.806,0.036 1.612,0.034 0.807,-0.002 1.613,-0.043 0.805,-0.041 1.608,-0.119 0.803,-0.079 1.601,-0.196 0.798,-0.117 1.59,-0.271 0.792,-0.154 1.575,-0.346 0.784,-0.192 1.557,-0.421 0.774,-0.229 1.535,-0.494 0.762,-0.265 1.511,-0.566 0.748,-0.301 1.481,-0.637 0.734,-0.337 1.45,-0.707 0.716,-0.371 1.415,-0.775 0.698,-0.404 1.376,-0.841 0.678,-0.437 1.335,-0.905 l 47.714,-34.04 q 0.703,-0.501 1.379,-1.037 0.675,-0.536 1.323,-1.106 0.648,-0.569 1.266,-1.171 0.618,-0.602 1.205,-1.234 0.587,-0.632 1.141,-1.293 0.554,-0.661 1.074,-1.35 0.52,-0.688 1.004,-1.402 0.484,-0.714 0.932,-1.451 0.447,-0.738 0.856,-1.497 0.41,-0.759 0.78,-1.538 0.371,-0.779 0.701,-1.576 0.33,-0.797 0.62,-1.61 0.29,-0.812 0.538,-1.638 0.248,-0.827 0.453,-1.664 0.206,-0.838 0.369,-1.685 0.163,-0.847 0.283,-1.701 0.12,-0.855 0.196,-1.714 0.077,-0.859 0.11,-1.721 0.032,-0.862 0.021,-1.724 -0.011,-0.863 -0.066,-1.724 -0.054,-0.861 -0.153,-1.718 -0.098,-0.857 -0.24,-1.708 -0.141,-0.85 -0.326,-1.693 -0.185,-0.843 -0.412,-1.675 -0.227,-0.832 -0.496,-1.652 -0.269,-0.819 -0.579,-1.624 -0.31,-0.805 -0.661,-1.593 -0.351,-0.7881 -0.741,-1.5574 -0.39,-0.7694 -0.819,-1.5179 -0.428,-0.7485 -0.894,-1.4744 -0.467,-0.7258 -0.969,-1.4271 -0.502,-0.7013 -1.039,-1.3761 l -38.858,-48.816597 q -1.932,-2.4273 -4.272,-4.464696 c 6.279,-12.3452 7.25,-23.5166 1.476,-31.04069 -12.665,-16.5029897 -52.982201,-9.2118027 -90.050901,16.28489 z"
     id="Rectangle-Union"
     fill="#f0b864"
     fill-rule="evenodd"
     stroke="none" />
  <path
     d="M 41.229759,32.24881 C 10.609999,58.409963 -5.5160109,89.936493 1.7122691,107.08105 3.9284191,89.558103 18.947779,66.084463 42.656949,45.827614 76.863409,16.601863 116.20475,5.1391503 130.52818,20.225619 c 1.50159,1.582007 2.66929,3.39307 3.51587,5.401481 0.98137,-7.758684 -0.54706,-14.350731 -4.94306,-18.9802157 C 114.77756,-8.4396147 75.436219,3.0230503 41.229759,32.24881 Z"
     id="Rectangle-Union-2-Difference-2-Difference"
     fill="#895a2b"
     fill-rule="evenodd"
     stroke="none" />
  <path
     d="m 13.068809,111.07171 c -12.6650099,-16.502797 7.11843,-50.550197 44.18733,-76.046997 12.371,-8.509 25.1037,-14.9903 37.0497,-19.2363 -10.497,4.2521 -21.7325,10.8704 -32.641,19.6298 -31.8634,25.5859 -48.87031,59.7522 -37.9859,76.311497 2.8308,4.307 7.2695,6.999 12.8486,8.174 -10.5076,0.053 -18.83001,-2.801 -23.45873,-8.832 z m 30.59443,9.521 q 0.9449,2.727 2.3358,5.255 1.3908,2.528 3.1878,4.785 l 35.4426,44.527 q -0.1584,-0.225 -0.3132,-0.452 l -31.3354,-45.961 q -1.3346,-1.958 -2.3848,-4.081 -1.0503,-2.124 -1.7958,-4.373 c -1.7704,0.197 -3.4855,0.298 -5.137,0.3 z m 43.4099,57.637 0.9716,1.22 q 0.5023,0.631 1.0341,1.238 0.5317,0.606 1.0916,1.187 0.5599,0.581 1.1467,1.134 0.5868,0.554 1.1992,1.079 0.6124,0.525 1.2491,1.02 0.6366,0.496 1.296,0.96 0.6594,0.465 1.34,0.898 0.6807,0.433 1.3812,0.833 0.7004,0.4 1.4191,0.766 0.7186,0.367 1.453801,0.699 0.7352,0.331 1.4853,0.628 0.7501,0.297 1.5135,0.558 0.7633,0.26 1.5382,0.485 0.7748,0.224 1.5594,0.411 0.7846,0.187 1.5773,0.337 0.7926,0.15 1.5909,0.262 0.799,0.112 1.603,0.186 0.803,0.075 1.609,0.11 0.806,0.036 1.612,0.034 0.807,-0.002 1.612,-0.043 0.806,-0.041 1.609,-0.119 0.803,-0.079 1.601,-0.196 0.798,-0.117 1.59,-0.271 0.791,-0.154 1.575,-0.346 0.784,-0.192 1.557,-0.421 0.774,-0.229 1.535,-0.494 0.762,-0.265 1.511,-0.566 0.748,-0.301 1.481,-0.637 0.733,-0.337 1.45,-0.707 0.716,-0.371 1.415,-0.775 0.698,-0.404 1.376,-0.841 0.678,-0.437 1.335,-0.905 l 47.714,-34.04 q 0.703,-0.501 1.379,-1.037 0.675,-0.536 1.323,-1.106 0.648,-0.569 1.266,-1.171 0.618,-0.602 1.205,-1.234 0.587,-0.632 1.141,-1.293 0.554,-0.661 1.074,-1.35 0.52,-0.688 1.004,-1.402 0.484,-0.714 0.932,-1.451 0.447,-0.738 0.856,-1.497 0.41,-0.759 0.78,-1.538 0.371,-0.779 0.701,-1.576 0.33,-0.797 0.62,-1.61 0.29,-0.812 0.538,-1.638 0.248,-0.827 0.453,-1.664 0.206,-0.838 0.369,-1.685 0.163,-0.847 0.283,-1.701 0.12,-0.855 0.196,-1.714 0.077,-0.859 0.11,-1.721 0.032,-0.862 0.021,-1.724 -0.011,-0.863 -0.066,-1.724 -0.054,-0.861 -0.153,-1.718 -0.098,-0.857 -0.24,-1.708 -0.141,-0.85 -0.326,-1.693 -0.185,-0.843 -0.412,-1.675 -0.227,-0.832 -0.496,-1.652 -0.269,-0.819 -0.579,-1.624 -0.31,-0.805 -0.661,-1.593 -0.351,-0.7881 -0.741,-1.5574 -0.39,-0.7694 -0.819,-1.5179 -0.428,-0.7485 -0.894,-1.4744 -0.467,-0.7258 -0.969,-1.4271 -0.502,-0.7013 -1.039,-1.3761 l -38.858,-48.816597 q -1.932,-2.4272 -4.272,-4.4647 c 6.279,-12.3452 7.25,-23.5166 1.476,-31.04069 -5.484,-7.1462 -16.154,-9.8307437 -29.499,-8.507426 9.549,-0.2977437 17.121,2.546966 21.259,8.842286 5.187,7.89123 4.04,19.78063 -2.03,32.83443 q 1.205,0.8664 2.33,1.8346 1.125,0.9681 2.161,2.0306 1.036,1.0625 1.976,2.2113 0.939,1.1487 1.776,2.375 l 31.336,45.961697 q 0.441,0.6474 0.852,1.3144 0.411,0.6671 0.791,1.3524 0.38,0.6853 0.728,1.3876 0.348,0.702 0.663,1.419 0.315,0.717 0.597,1.449 0.282,0.731 0.53,1.474 0.248,0.743 0.461,1.497 0.214,0.754 0.392,1.517 0.178,0.763 0.322,1.534 0.143,0.77 0.25,1.546 0.107,0.776 0.179,1.557 0.072,0.78 0.107,1.563 0.036,0.782 0.035,1.566 0,0.783 -0.037,1.566 -0.037,0.783 -0.109,1.563 -0.073,0.78 -0.182,1.556 -0.108,0.776 -0.252,1.546 -0.144,0.771 -0.324,1.533 -0.179,0.763 -0.394,1.517 -0.214,0.753 -0.463,1.496 -0.249,0.743 -0.532,1.474 -0.283,0.731 -0.599,1.448 -0.317,0.716 -0.665,1.418 -0.349,0.702 -0.73,1.386 -0.381,0.685 -0.793,1.352 -0.412,0.666 -0.855,1.313 -0.442,0.647 -0.914,1.272 -0.471,0.626 -0.971,1.229 -0.5,0.604 -1.027,1.183 -0.528,0.58 -1.081,1.135 -0.553,0.555 -1.132,1.083 -0.578,0.529 -1.18,1.03 l -36.117,30.081 q -0.68,0.567 -1.389,1.098 -0.71,0.531 -1.445,1.024 -0.736,0.492 -1.497,0.946 -0.76,0.454 -1.543,0.868 -0.783,0.414 -1.587,0.787 -0.804,0.372 -1.626,0.702 -0.821,0.33 -1.659,0.617 -0.838,0.287 -1.69,0.53 -0.852,0.243 -1.715,0.441 -0.863,0.198 -1.736,0.351 -0.872,0.153 -1.751,0.26 -0.879,0.108 -1.763,0.169 -0.884,0.061 -1.769,0.077 -0.886,0.015 -1.771,-0.016 -0.885,-0.03 -1.767,-0.107 -0.8828,-0.077 -1.76,-0.2 -0.7386,-0.103 -1.4719,-0.239 -0.7333,-0.135 -1.46,-0.303 -0.7267,-0.168 -1.4453,-0.367 -0.7186,-0.199 -1.4278,-0.43 -0.7092,-0.23 -1.4076,-0.492 -0.698501,-0.261 -1.384701,-0.553 -0.6863,-0.292 -1.3591,-0.614 -0.6728,-0.322 -1.3309,-0.672 -0.658,-0.351 -1.3001,-0.731 -0.642,-0.379 -1.2668,-0.786 -0.6248,-0.408 -1.2311,-0.842 -0.6063,-0.434 -1.193,-0.894 -0.5867,-0.461 -1.1527,-0.946 -0.5659,-0.486 -1.11,-0.996 -0.5442,-0.51 -1.0654,-1.043 -0.5212,-0.534 -1.0186,-1.089 z"
     id="Rectangle-Union-2-Difference-Difference"
     fill="#895a2b"
     fill-rule="evenodd"
     stroke="none" />
  <path
     d="m 41.411589,111.12358 c 0,0 20.0081,24.4377 33.4561,40.3416 13.4481,15.904 20.3361,23.2741 20.3361,23.2741 0,0 5.904001,7.9131 9.840001,10.8612 3.9361,2.948 8.8561,-0.3103 8.8561,-0.3103 0,0 7.626,5.5082 -10.4961,-13.0335 -18.122001,-18.5416 -61.992201,-61.1331 -61.992201,-61.1331 z"
     id="New-shape"
     fill="#f2cea0"
     fill-rule="evenodd"
     stroke="none" />
  <g
     id="Group-2"
     transform="translate(35.106349,50.081383)">
    <g
       id="Group">
      <path
         d="M 0,3.72384 C 0,1.66722 1.61536,0 3.60801,0 5.60066,0 7.21603,1.66722 7.21603,3.72384 7.21603,5.78047 5.60066,7.44769 3.60801,7.44769 1.61536,7.44769 0,5.78047 0,3.72384 Z"
         transform="translate(71.92041)"
         id="Ellipse-3"
         fill="#d19945"
         fill-rule="evenodd"
         stroke="none" />
      <path
         d="M 0,3.72384 C 0,1.66722 1.61536,0 3.60801,0 5.60066,0 7.21603,1.66722 7.21603,3.72384 7.21603,5.78046 5.60066,7.44769 3.60801,7.44769 1.61536,7.44769 0,5.78046 0,3.72384 Z"
         transform="translate(54.208374,68.89111)"
         id="Ellipse-12"
         fill="#d19945"
         fill-rule="evenodd"
         stroke="none" />
      <path
         d="M 0,3.72384 C 0,1.66722 1.61536,0 3.60801,0 5.60066,0 7.21603,1.66722 7.21603,3.72384 7.21603,5.78046 5.60066,7.44769 3.60801,7.44769 1.61536,7.44769 0,5.78046 0,3.72384 Z"
         transform="translate(108.00061,85.64844)"
         id="Ellipse-13"
         fill="#d19945"
         fill-rule="evenodd"
         stroke="none" />
      <path
         d="M 0,3.72384 C 0,1.66722 1.61536,0 3.60801,0 5.60066,0 7.21603,1.66722 7.21603,3.72384 7.21603,5.78046 5.60066,7.44769 3.60801,7.44769 1.61536,7.44769 0,5.78046 0,3.72384 Z"
         transform="translate(46.336365,76.338806)"
         id="Ellipse-14"
         fill="#d19945"
         fill-rule="evenodd"
         stroke="none" />
      <path
         d="M 0,3.72384 C 0,1.66722 1.61536,0 3.60801,0 5.60066,0 7.21603,1.66722 7.21603,3.72384 7.21603,5.78046 5.60066,7.44769 3.60801,7.44769 1.61536,7.44769 0,5.78046 0,3.72384 Z"
         transform="translate(10.256241,65.16724)"
         id="Ellipse-19"
         fill="#d19945"
         fill-rule="evenodd"
         stroke="none" />
      <path
         d="M 0,2.17224 C 0,0.972545 0.881107,0 1.96801,0 c 1.0869,0 1.96801,0.972545 1.96801,2.17224 0,1.1997 -0.88111,2.17224 -1.96801,2.17224 C 0.881107,4.34448 0,3.37194 0,2.17224 Z"
         transform="translate(49.616364,52.754456)"
         id="Ellipse-20"
         fill="#d19945"
         fill-rule="evenodd"
         stroke="none" />
      <path
         d="M 0,3.72384 C 0,1.66722 1.61536,0 3.60801,0 5.60066,0 7.21603,1.66722 7.21603,3.72384 7.21603,5.78046 5.60066,7.44769 3.60801,7.44769 1.61536,7.44769 0,5.78046 0,3.72384 Z"
         transform="translate(39.12033,58.960876)"
         id="Ellipse-21"
         fill="#d19945"
         fill-rule="evenodd"
         stroke="none" />
      <path
         d="M 0,3.72384 C 0,1.66722 1.61536,0 3.60801,0 5.60066,0 7.21603,1.66722 7.21603,3.72384 7.21603,5.78046 5.60066,7.44769 3.60801,7.44769 1.61536,7.44769 0,5.78046 0,3.72384 Z"
         transform="translate(35.840332,89.37225)"
         id="Ellipse-22"
         fill="#d19945"
         fill-rule="evenodd"
         stroke="none" />
      <path
         d="M 0,3.72384 C 0,1.66722 1.61536,0 3.60801,0 5.60066,0 7.21603,1.66722 7.21603,3.72384 7.21603,5.78047 5.60066,7.44769 3.60801,7.44769 1.61536,7.44769 0,5.78047 0,3.72384 Z"
         transform="translate(93.56854,52.13379)"
         id="Ellipse-16"
         fill="#d19945"
         fill-rule="evenodd"
         stroke="none" />
      <path
         d="M 0,3.72384 C 0,1.66722 1.61536,0 3.60801,0 5.60066,0 7.21603,1.66722 7.21603,3.72384 7.21603,5.78046 5.60066,7.44769 3.60801,7.44769 1.61536,7.44769 0,5.78046 0,3.72384 Z"
         transform="translate(74.544495,65.16724)"
         id="Ellipse-28"
         fill="#d19945"
         fill-rule="evenodd"
         stroke="none" />
      <path
         d="M 0,3.72384 C 0,1.66722 1.61536,0 3.60801,0 5.60066,0 7.21603,1.66722 7.21603,3.72384 7.21603,5.78046 5.60066,7.44769 3.60801,7.44769 1.61536,7.44769 0,5.78046 0,3.72384 Z"
         transform="translate(96.84857,90.613525)"
         id="Ellipse-24"
         fill="#d19945"
         fill-rule="evenodd"
         stroke="none" />
      <path
         d="M 0.0027256,3.75349 C -0.0534115,1.65251 0.76409,-0.027832 1.82889,3.50952e-4 2.89339,0.0283051 3.80218,1.75433 3.85818,3.85524 3.91451,5.9562 3.0968,7.63651 2.03224,7.6085 0.967512,7.58046 0.0589046,5.85469 0.0027256,3.75349 Z"
         transform="rotate(-37.999999,157.82067,-89.231539)"
         id="Ellipse-25"
         fill="#d19945"
         fill-rule="evenodd"
         stroke="none" />
      <path
         d="M 0,3.72384 C 0,1.66722 1.61536,0 3.60801,0 5.60066,0 7.21603,1.66722 7.21603,3.72384 7.21603,5.78046 5.60066,7.44769 3.60801,7.44769 1.61536,7.44769 0,5.78046 0,3.72384 Z"
         transform="translate(100.78458,65.16724)"
         id="Ellipse-29"
         fill="#d19945"
         fill-rule="evenodd"
         stroke="none" />
      <path
         d="M 6.80923e-4,2.44555 C -0.0372295,1.0436 1.51279,-0.0504379 3.46269,0.00179291 5.41284,0.0538788 7.02445,1.23284 7.06243,2.63473 7.10042,4.0368 5.55034,5.13081 3.60027,5.07873 1.6504,5.0264 0.0386257,3.84774 6.80923e-4,2.44555 Z"
         transform="rotate(-39.000003,165.28884,-35.549477)"
         id="Ellipse-26"
         fill="#d19945"
         fill-rule="evenodd"
         stroke="none" />
      <path
         d="M 0,3.72384 C 0,1.66722 1.61536,0 3.60801,0 5.60066,0 7.21603,1.66722 7.21603,3.72384 7.21603,5.78046 5.60066,7.44769 3.60801,7.44769 1.61536,7.44769 0,5.78046 0,3.72384 Z"
         transform="translate(117.18463,68.89111)"
         id="Ellipse-27"
         fill="#d19945"
         fill-rule="evenodd"
         stroke="none" />
      <path
         d="M 0.00250006,3.76542 C -0.0553803,1.65233 0.898853,-0.0332489 2.13392,4.95911e-4 3.36895,0.0343094 4.41701,1.77448 4.47488,3.88763 4.53277,6.00078 3.57852,7.68639 2.34353,7.65261 1.10848,7.61887 0.060369,5.87865 0.00250006,3.76542 Z"
         transform="rotate(-44.000001,76.289574,-40.771094)"
         id="Ellipse-5"
         fill="#d19945"
         fill-rule="evenodd"
         stroke="none" />
      <path
         d="M 0.00250053,3.7654 C -0.0553818,1.65232 0.898851,-0.0332832 2.13391,4.99725e-4 3.36889,0.0342522 4.41698,1.77454 4.47488,3.88762 4.53274,6.00073 3.57848,7.68637 2.3435,7.65261 1.10846,7.61875 0.060358,5.87843 0.00250053,3.7654 Z"
         transform="rotate(-44.000001,66.844167,-14.368109)"
         id="Ellipse-18"
         fill="#d19945"
         fill-rule="evenodd"
         stroke="none" />
      <path
         d="M 0.00249672,3.76538 C -0.0553398,1.65234 0.898844,-0.0332222 2.13392,4.95911e-4 3.36892,0.0342827 4.4171,1.77456 4.47488,3.88764 4.53276,6.00064 3.57854,7.68635 2.34348,7.65261 1.10849,7.61874 0.0603657,5.87848 0.00249672,3.76538 Z"
         transform="rotate(-44.000001,76.604849,2.1598086)"
         id="Ellipse-17"
         fill="#d19945"
         fill-rule="evenodd"
         stroke="none" />
      <path
         d="M 0,3.72384 C 0,1.66722 1.61536,0 3.60801,0 5.60066,0 7.21603,1.66722 7.21603,3.72384 7.21603,5.78047 5.60066,7.44769 3.60801,7.44769 1.61536,7.44769 0,5.78047 0,3.72384 Z"
         transform="translate(64.70441,55.237)"
         id="Ellipse-6"
         fill="#d19945"
         fill-rule="evenodd"
         stroke="none" />
      <path
         d="M 0.00286102,5.58918 C -0.0751686,2.45503 1.45238,-0.0470428 3.41491,6.71387e-4 5.37727,0.0484695 7.03127,2.6277 7.10946,5.76192 7.18746,8.89597 5.65995,11.3982 3.6975,11.3503 1.73503,11.3027 0.0809364,8.72317 0.00286102,5.58918 Z"
         transform="rotate(-32,102.37925,-106.75612)"
         id="Ellipse-7"
         fill="#d19945"
         fill-rule="evenodd"
         stroke="none" />
      <path
         d="M 0,5.27544 C 0,2.3619 2.49647,0 5.57602,0 8.65557,0 11.152,2.3619 11.152,5.27544 11.152,8.18899 8.65557,10.5509 5.57602,10.5509 2.49647,10.5509 0,8.18899 0,5.27544 Z"
         transform="translate(73.88843,82.54523)"
         id="Ellipse-8"
         fill="#d19945"
         fill-rule="evenodd"
         stroke="none" />
      <path
         d="M 0,5.27544 C 0,2.3619 2.49647,0 5.57602,0 8.65558,0 11.152,2.3619 11.152,5.27544 11.152,8.18899 8.65558,10.5509 5.57602,10.5509 2.49647,10.5509 0,8.18899 0,5.27544 Z"
         transform="translate(124.40063,87.510315)"
         id="Ellipse-23"
         fill="#d19945"
         fill-rule="evenodd"
         stroke="none" />
      <path
         d="M 0,3.72384 C 0,1.66722 1.61536,0 3.60801,0 5.60066,0 7.21603,1.66722 7.21603,3.72384 7.21603,5.78047 5.60066,7.44769 3.60801,7.44769 1.61536,7.44769 0,5.78047 0,3.72384 Z"
         transform="translate(53.5524,24.825623)"
         id="Ellipse-9"
         fill="#d19945"
         fill-rule="evenodd"
         stroke="none" />
      <path
         d="M 0,3.72384 C 0,1.66722 1.61536,0 3.60801,0 5.60066,0 7.21603,1.66722 7.21603,3.72384 7.21603,5.78047 5.60066,7.44769 3.60801,7.44769 1.61536,7.44769 0,5.78047 0,3.72384 Z"
         transform="translate(85.0405,21.101807)"
         id="Ellipse-10"
         fill="#d19945"
         fill-rule="evenodd"
         stroke="none" />
      <path
         d="M 0,3.72384 C 0,1.66722 1.61536,0 3.60801,0 5.60066,0 7.21603,1.66722 7.21603,3.72384 7.21603,5.78047 5.60066,7.44769 3.60801,7.44769 1.61536,7.44769 0,5.78047 0,3.72384 Z"
         transform="translate(96.84854,35.376526)"
         id="Ellipse-11"
         fill="#d19945"
         fill-rule="evenodd"
         stroke="none" />
      <path
         d="M 0.00258827,4.66513 C -0.0645027,2.04868 1.18043,-0.0397301 2.78322,5.72205e-4 4.38602,0.0408592 5.73979,2.19452 5.80691,4.81094 5.87397,7.42744 4.62908,9.51576 3.02623,9.47553 1.42346,9.43525 0.0697002,7.28148 0.00258827,4.66513 Z"
         transform="rotate(-33.999999,70.593342,21.582547)"
         id="Ellipse"
         fill="#d19945"
         fill-rule="evenodd"
         stroke="none" />
      <path
         d="M 0,3.41352 C 0,1.52829 1.46851,0 3.28001,0 c 1.8115,0 3.28001,1.52829 3.28001,3.41352 0,1.88524 -1.46851,3.41353 -3.28001,3.41353 C 1.46851,6.82705 0,5.29876 0,3.41352 Z"
         transform="translate(20.752258,28.549438)"
         id="Ellipse-2"
         fill="#d19945"
         fill-rule="evenodd"
         stroke="none" />
      <path
         d="M 0.00190544,4.3359 C -0.0588036,1.89824 1.33825,-0.0426941 3.12231,7.13348e-4 4.90627,0.0440979 6.40172,2.05537 6.46245,4.493 6.52318,6.93064 5.12621,8.87156 3.34217,8.82822 1.55817,8.78478 0.0626659,6.7735 0.00190544,4.3359 Z"
         transform="rotate(-32,45.320604,-61.143819)"
         id="Ellipse-4"
         fill="#d19945"
         fill-rule="evenodd"
         stroke="none" />
    </g>
    <path
       d="M 0.00153732,3.76291 C -0.0550728,1.63364 1.4604,-0.0506287 3.3863,0.00115967 5.31213,0.0529938 6.91916,1.82114 6.9757,3.95041 7.03232,6.07986 5.51684,7.76393 3.59101,7.7121 1.66508,7.6604 0.0579376,5.89209 0.00153732,3.76291 Z"
       transform="rotate(-51.999997,170.63494,-35.554698)"
       id="Ellipse-15"
       fill="#d19945"
       fill-rule="evenodd"
       stroke="none" />
    <path
       d="M 5.34058e-5,5.55746 C -0.011322,2.47886 1.92496,-0.00933075 4.32493,2.67029e-5 6.72466,0.00953674 8.6793,2.51288 8.69084,5.59163 8.70216,8.6703 6.76618,11.1585 4.36601,11.1491 1.96627,11.1397 0.0115891,8.63626 5.34058e-5,5.55746 Z"
       transform="rotate(-85.999998,88.740893,28.741927)"
       id="Ellipse-35"
       fill="#d19945"
       fill-rule="evenodd"
       stroke="none" />
    <path
       d="M 0.00153351,3.76291 C -0.055027,1.6337 1.46059,-0.0505371 3.38641,0.00115967 5.31226,0.052948 6.91927,1.82097 6.97568,3.95018 7.03209,6.07954 5.51657,7.76373 3.59075,7.71208 1.66492,7.6604 0.057972,5.89223 0.00153351,3.76291 Z"
       transform="rotate(-51.999997,158.46111,-3.9559315)"
       id="Ellipse-36"
       fill="#d19945"
       fill-rule="evenodd"
       stroke="none" />
    <path
       d="M 0.00153351,3.76303 C -0.0550613,1.63361 1.46054,-0.0506134 3.38643,0.00115967 5.31218,0.0528412 6.91925,1.82091 6.9757,3.9503 7.03223,6.07968 5.51663,7.76388 3.59078,7.71211 1.66492,7.6604 0.0578728,5.8923 0.00153351,3.76303 Z"
       transform="rotate(-51.999997,177.52084,-20.407842)"
       id="Ellipse-37"
       fill="#d19945"
       fill-rule="evenodd"
       stroke="none" />
    <path
       d="M 0.00152206,3.76292 C -0.0548515,1.63354 1.46077,-0.0503845 3.38649,0.00115967 5.31215,0.0527344 6.91917,1.821 6.97567,3.95023 7.03203,6.07962 5.51674,7.76416 3.59075,7.7121 1.66505,7.66048 0.0580559,5.89241 0.00152206,3.76292 Z"
       transform="rotate(-51.999997,161.3536,-51.639926)"
       id="Ellipse-38"
       fill="#d19945"
       fill-rule="evenodd"
       stroke="none" />
    <path
       d="M 0.00152969,3.76297 C -0.0549583,1.63351 1.46047,-0.0507202 3.38628,0.00117493 5.31227,0.0526123 6.91928,1.82086 6.97568,3.95026 7.0321,6.07971 5.51662,7.76399 3.59086,7.71211 1.66483,7.66054 0.0579414,5.89226 0.00152969,3.76297 Z"
       transform="rotate(-51.999997,153.0812,-26.40427)"
       id="Ellipse-39"
       fill="#d19945"
       fill-rule="evenodd"
       stroke="none" />
  </g>
  <path
     d="m 148.996,9.9591563 c 0,0 8.93804,10.7835997 10.824,17.9985997 1.886,7.2149 0,14.8954 0,14.8954 0,0 2.2141,6.5167 4.9201,10.550797 2.706,4.0342 5.904,5.5858 5.904,5.5858 0,0 -3.854,-10.395697 -6.232,-19.860497 -2.378,-9.4648 2.132,-11.0164 -3.2801,-17.9986 -5.41197,-6.98218 -12.136,-11.1714997 -12.136,-11.1714997 z"
     id="New-shape-2"
     fill="#895a2b"
     fill-rule="evenodd"
     stroke="none" />
  <path
     d="m 9.2674591,124.7777 c 0,0 4.7560199,9.77509 11.8079999,14.2747 7.0521,4.4997 8.5281,-0.7758 16.4001,3.7239 7.8721,4.4996 15.0881,14.2747 15.0881,14.2747 l 26.5681,29.7908 c 0,0 -7.1341,-13.9644 -13.7761,-23.8947 -6.642,-9.9302 -12.792,-15.8263 -12.792,-15.8263 0,0 -8.0572,-8.8646 -14.1041,-10.8612 -6.0469,-1.99671 -5.74,-0.2328 -12.792,-2.79293 -7.05206,-2.56014 -16.4000999,-8.68897 -16.4000999,-8.68897 z"
     id="New-shape-3"
     fill="#895a2b"
     fill-rule="evenodd"
     stroke="none" />
</svg>
