<?xml version="1.0" encoding="UTF-8" standalone="no"?>
<svg
   width="179.1947"
   height="109.29389"
   viewBox="0 0 179.1947 109.29389"
   version="1.1"
   id="svg880"
   sodipodi:docname="3.svg"
   inkscape:version="1.1 (c68e22c387, 2021-05-23)"
   xmlns:inkscape="http://www.inkscape.org/namespaces/inkscape"
   xmlns:sodipodi="http://sodipodi.sourceforge.net/DTD/sodipodi-0.dtd"
   xmlns:xlink="http://www.w3.org/1999/xlink"
   xmlns="http://www.w3.org/2000/svg"
   xmlns:svg="http://www.w3.org/2000/svg">
  <sodipodi:namedview
     id="namedview882"
     pagecolor="#ffffff"
     bordercolor="#666666"
     borderopacity="1.0"
     inkscape:pageshadow="2"
     inkscape:pageopacity="0.0"
     inkscape:pagecheckerboard="0"
     showgrid="false"
     inkscape:zoom="1.4622144"
     inkscape:cx="204.14243"
     inkscape:cy="70.099159"
     inkscape:window-width="1920"
     inkscape:window-height="1017"
     inkscape:window-x="-8"
     inkscape:window-y="-8"
     inkscape:window-maximized="1"
     inkscape:current-layer="svg880" />
  <defs
     id="defs865">
    <rect
       width="490"
       height="569"
       id="artboard_1"
       x="0"
       y="0" />
    <clipPath
       id="clip_1">
      <use
         xlink:href="#artboard_1"
         clip-rule="evenodd"
         id="use862"
         x="0"
         y="0"
         width="100%"
         height="100%" />
    </clipPath>
  </defs>
  <use
     xlink:href="#artboard_1"
     stroke="none"
     fill="#ffffff"
     fill-opacity="0"
     id="use867"
     x="0"
     y="0"
     width="100%"
     height="100%"
     transform="translate(-41.210051,-87.941403)" />
  <g
     id="Group"
     transform="translate(-14.440886,-18.892883)">
    <path
       d="M 7.1907e-4,40.2967 C 0.203014,18.543 42.9243,0.506363 95.4219,0.0104523 147.919,-0.485794 190.313,16.7467 190.11,38.5001 189.909,60.2538 147.187,78.2908 94.6895,78.7868 42.1925,79.2822 -0.201403,62.0504 7.1907e-4,40.2967 Z"
       transform="rotate(-23,182.55426,37.141083)"
       id="Ellipse"
       fill="#e0a853"
       fill-rule="evenodd"
       stroke="none" />
    <path
       d="M 8.85128e-6,94.5851 C 9.7777,103.331 45.5369,96.6733 87.3137,77.2893 135.615,54.878 173.67,23.9418 172.311,8.19167 171.946,3.96399 168.779,1.2601 163.406,-2.68481e-5 163.446,0.211369 163.478,0.427224 163.502,0.647556 165.228,16.2344 128.645,48.3212 81.7924,72.3152 45.1368,91.0874 13.0547,99.3445 8.85128e-6,94.5851 Z"
       transform="translate(21.289291,26.17389)"
       id="Ellipse-3-Difference"
       fill="#855a2b"
       fill-rule="evenodd"
       stroke="none" />
    <path
       d="m 0,65.438 c 0,0 11.2129,-18.4595 25.9559,-30.5621 14.743,-12.1026 35.5077,-20.2932 35.5077,-20.2932 0,0 10.2785,-4.3005 26.7865,-8.55738 C 104.758,1.76841 125.004,0 125.004,0 c 0,0 -22.322,8.36981 -38.8304,16.7832 -16.508,8.4133 -27.6171,13.4473 -27.6171,13.4473 0,0 -5.3988,3.3007 -20.1418,11.2468 C 23.6718,49.4235 0,65.438 0,65.438 Z"
       transform="translate(43.959747,26.785828)"
       id="New-shape-5"
       fill="#f9ca85"
       fill-rule="evenodd"
       stroke="none" />
    <path
       d="m 3.99564,5.78631 c 0,0 1.1845,-3.68187 3.12508,-4.909165 1.94058,-1.227294 3.02428,-1.234683 4.83888,0.411555 1.8145,1.64624 2.4194,5.96763 2.4194,5.96763 0,0 -0.9577,11.47217 -3.0243,22.84157 -2.06657,11.3693 -4.73802,22.6062 -4.73802,22.6062 0,0 -5.897349,-9.6421 -6.5526101,-21.3715 C -0.591191,19.6031 3.99564,5.78631 3.99564,5.78631 Z"
       transform="translate(129.84937,18.892883)"
       id="New-shape"
       fill="#855a32"
       fill-rule="evenodd"
       stroke="none" />
    <path
       d="m 3.99564,5.78631 c 0,0 1.1845,-3.68187 3.12508,-4.909165 1.94058,-1.227294 3.02428,-1.234683 4.83888,0.411555 1.8145,1.64624 2.4194,5.96763 2.4194,5.96763 0,0 -0.9577,11.47217 -3.0243,22.84157 -2.06657,11.3693 -4.73802,22.6062 -4.73802,22.6062 0,0 -5.897349,-9.6421 -6.5526101,-21.3715 C -0.591191,19.6031 3.99564,5.78631 3.99564,5.78631 Z"
       transform="translate(101.62271,27.09967)"
       id="New-shape-2"
       fill="#855a32"
       fill-rule="evenodd"
       stroke="none" />
    <path
       d="m 3.99564,5.78631 c 0,0 1.1845,-3.68187 3.12508,-4.909166 1.94058,-1.227292 3.02428,-1.234682 4.83888,0.411556 1.8145,1.64624 2.4194,5.96763 2.4194,5.96763 0,0 -0.9577,11.47217 -3.0243,22.84157 -2.06657,11.3693 -4.73802,22.6062 -4.73802,22.6062 0,0 -5.897349,-9.6421 -6.5526101,-21.3715 C -0.591191,19.6031 3.99564,5.78631 3.99564,5.78631 Z"
       transform="translate(71.78314,39.059326)"
       id="New-shape-3"
       fill="#855a32"
       fill-rule="evenodd"
       stroke="none" />
    <path
       d="m 4.21974,5.33178 c 0,0 1.25094,-3.39265 3.30036,-4.523537 2.04942,-1.130887 3.1939,-1.137695 5.1102,0.379227 1.9164,1.51693 2.5552,5.49886 2.5552,5.49886 0,0 -1.0114,10.57107 -3.1939,21.04727 C 9.80907,38.2099 6.98779,48.564 6.98779,48.564 c 0,0 -6.228114,-8.8846 -6.9201266,-19.6927 C -0.624349,18.0632 4.21974,5.33178 4.21974,5.33178 Z"
       transform="translate(44.36299,53.46393)"
       id="New-shape-4"
       fill="#855a32"
       fill-rule="evenodd"
       stroke="none" />
    <path
       d="m 0,37.0404 c 0,0 16.7344,-16.0325 33.2671,-24.8994 C 49.7998,3.27415 64.7196,0 64.7196,0 64.7196,0 49.7998,6.56663 33.2671,15.4335 16.7344,24.3003 0,37.0404 0,37.0404 Z"
       transform="translate(36.499847,23.008484)"
       id="New-shape-6"
       fill="#855a32"
       fill-rule="evenodd"
       stroke="none" />
    <path
       d="m 0,65.4381 c 0,0 20.0611,-1.8521 37.0979,-7.614 17.0367,-5.7618 31.0492,-13.3757 31.0492,-13.3757 0,0 10.1818,-4.63 22.783,-15.2277 C 103.531,18.6231 118.552,0 118.552,0 c 0,0 -9.375,17.1826 -21.1701,29.2207 C 85.5872,41.2589 71.373,48.1526 71.373,48.1526 c 0,0 -18.2465,10.0832 -36.0897,14.4046 C 17.44,66.8786 0,65.4381 0,65.4381 Z"
       transform="translate(68.96048,62.51819)"
       id="New-shape-7"
       fill="#845c39"
       fill-rule="evenodd"
       stroke="none" />
  </g>
</svg>
