<svg xmlns="http://www.w3.org/2000/svg" viewBox="0 0 512 428.71"><defs></defs><path d="M500.28,190.67,284.28,9.81c-15.62-13.08-40.94-13.08-56.56,0h0l-216,180.86C-3.91,203.75-3.91,225,11.72,238c12,10,29.64,12.36,44.28,7l1.23,152.49c.22,27.74,25.63,31.17,58.77,31.17H396c33.14,0,59.27-3.43,59.38-31.17L456,245.05c14.64,5.35,32.31,3,44.28-7h0c15.62-13.08,15.62-34.29,0-47.37ZM326,361.72c0,9.25-8.95,16.75-20,16.75H206c-11.05,0-20-7.5-20-16.75V261.25c0-9.25,8.95-16.75,20-16.75H306c11.05,0,20,7.5,20,16.75Z"/></svg>
