<svg xmlns="http://www.w3.org/2000/svg" viewBox="0 0 477.16 477.07"><defs><style></style></defs><path d="M475,380.27l-2.38-7.15c-5.62-16.72-24.06-34.16-41-38.75L369,317.24c-17-4.62-41.25,1.6-53.69,14L292.57,354A240.67,240.67,0,0,1,123.21,184.59L145.9,161.9c12.44-12.44,18.66-36.66,14-53.66L142.84,45.52c-4.63-17-22.1-35.4-38.78-41L96.9,2.15c-16.72-5.57-40.56.06-53,12.5L10,48.62C3.9,54.65,0,71.9,0,72A400.56,400.56,0,0,0,404.2,477.05c.56,0,18.31-3.81,24.37-9.84l33.94-33.94C475,420.84,480.57,397,475,380.27Z"/></svg>
