 <svg xmlns="http://www.w3.org/2000/svg"  viewBox="0 0 505.04 413.67"><defs></defs><path d="M0,367.23c56,5.1,106.1-8.9,151.5-42.9-7-1.6-13.4-1.6-19.5-3.1-35.7-8.5-60.4-30-74.9-63.5-.7-1.7-2.5-3.8-.9-5.5,1.2-1.3,3.5-.2,5.2,0a113.18,113.18,0,0,0,37.6-2c.2-2.2-1.4-2-2.6-2.4-30.7-8.2-53-26.5-67.4-54.8a95.42,95.42,0,0,1-10.6-41.2c-.2-5.7.1-5.8,5.4-3.3a104,104,0,0,0,40.9,10.1c-6.9-5.6-13.1-10.5-18.4-16.4a103.7,103.7,0,0,1-27-62.9c-1.5-19.6,2.6-37.9,11.1-55.5,1.9-3.9,3.6-3.6,6-.7,16.7,20.4,36.2,37.7,57.7,52.7a298.14,298.14,0,0,0,50.9,28.4,303.56,303.56,0,0,0,73.5,21.3c8,1.3,16.2,1.6,24.3,2.4,4.1.4,5.2-.8,4.4-5a99.06,99.06,0,0,1,8.1-62.3c16.1-33.6,43.1-54,79.8-59.4,32.6-4.8,61.9,4.5,86.2,27.4,3.7,3.5,7,4.4,12,3.1a224.66,224.66,0,0,0,55.9-22.1c.5-.3,1.1-.4,2.9-1.1-8.2,24.1-22.7,41.9-43,55.5,4.7.9,18.6-1.6,28.2-4.6,9.2-2.9,18.4-5.5,27.2-9.4,1.2,1.3.1,2-.4,2.7-11.7,16.5-25.1,31.4-41.1,43.8-2.2,1.7-4.3,3.6-6.6,5.2-1.7,1.2-1.8,2.7-1.7,4.4a297.31,297.31,0,0,1-3.2,54.2,292,292,0,0,1-13.4,53.6,319.17,319.17,0,0,1-17.9,41.7,301.89,301.89,0,0,1-67.9,87.3,275.76,275.76,0,0,1-101.9,57.2,295.22,295.22,0,0,1-72.9,13,322.39,322.39,0,0,1-57.3-1.7,286.62,286.62,0,0,1-78.6-21.5c-12.9-5.5-25.1-12.1-37.3-19C2.6,370.23.9,369.43,0,367.23Z"/></svg>
