 <svg xmlns="http://www.w3.org/2000/svg"  viewBox="0 0 72.54 42.66"><defs></defs><path  d="M70.69,41.25c-2.53,1.58-12.81,2-15.3.25a34.22,34.22,0,0,1-3.8-3.42A25.59,25.59,0,0,1,49.11,36c-.58-.73-1-1.6-1.59-2.32-1-1.21-2.63-2.25-3.89-.76-1.89,2.23.3,6.61-2.23,8.28a4.1,4.1,0,0,1-2.76.64l-2.34.11a29.22,29.22,0,0,1-5.13-.24,21.06,21.06,0,0,1-4.78-2,22.54,22.54,0,0,1-8-5.65c-5.93-6.85-13.88-16.26-17-24.86C.75,7.41-.93,3.91.67,2.39c2.16-1.57,12.78-2,14.44.42a21.37,21.37,0,0,1,1.57,3.55,17.56,17.56,0,0,0,1.84,4,25.71,25.71,0,0,1,2.07,3.4,34.81,34.81,0,0,0,2.25,3.89c.59.85,2.14,2.52,3.12,2.65,2.4.31,2.25-5.52,2.07-6.94a28.32,28.32,0,0,1-.17-4.22c0-1.19.15-2.86-.55-3.83-1.15-1.58-3.7-.39-3.9-2.52.42-.6.33-1.13,3.15-2.06a11.56,11.56,0,0,1,5.1-.59c3,.24,6.14-.57,9,.4S43,5.32,42.91,7.66c-.13,3.19,0,6.31,0,9.55,0,1.48-.06,2.91,1.73,2.79s1.86-1.53,2.67-2.7c1.12-1.63,2.15-3.29,3.29-4.92,1.53-2.2,2-4.67,3.44-6.92.52-.81,1-2.57,1.76-3.21.61-.48,1.75-.27,2.48-.27H60c1.33,0,2.69,0,4,.08,2,.07,4.17-.36,6.12-.08,8.42,1.19-10.58,19.19-9.59,22.4.69,2.22,5,4.7,6.58,6.52C69.27,33.32,75.66,38.14,70.69,41.25Z"/></svg>
