 <svg xmlns="http://www.w3.org/2000/svg"  viewBox="0 0 414.76 418.14"><defs></defs><path d="M197.24.24C86.81,5.5-.33,97.47,0,208a206.49,206.49,0,0,0,22.57,93.54L.55,408.43a8.07,8.07,0,0,0,9.77,9.48L115,393.1a206.49,206.49,0,0,0,89.11,21.63c112.87,1.73,207-87.9,210.5-200.72C418.42,93.06,318.6-5.54,197.24.24Zm125,322a162.47,162.47,0,0,1-187.09,30.62l-14.59-7.26-64.2,15.21,13.51-65.61-7.18-14.07A162.51,162.51,0,0,1,92.56,92.56,162.38,162.38,0,0,1,322.2,322.2Z"/><path d="M308,252.35l-40.17-11.53a15,15,0,0,0-14.81,3.9l-9.83,10a14.65,14.65,0,0,1-15.91,3.36c-19-7.69-59-43.23-69.18-61a14.64,14.64,0,0,1,1.16-16.22l8.58-11.09a15,15,0,0,0,1.84-15.21l-16.9-38.23A15,15,0,0,0,129.41,111c-11.21,9.48-24.51,23.89-26.13,39.85-2.85,28.14,9.22,63.62,54.87,106.22,52.73,49.22,94.95,55.72,122.44,49.06,15.6-3.78,28.06-18.92,35.93-31.32a15,15,0,0,0-8.5-22.44Z"/></svg>
